<svg height="512pt" viewBox="-69 0 512 512" width="512pt" xmlns="http://www.w3.org/2000/svg"><path d="m19.140625 512h310.433594c8.886719 0 16.121093-7.230469 16.121093-16.121094v-26.507812c0-4.144532-3.359374-7.5-7.5-7.5-4.144531 0-7.503906 3.355468-7.503906 7.5v26.507812c0 .617188-.5 1.121094-1.117187 1.121094h-12.042969v-60.535156c0-4.144532-3.355469-7.5-7.5-7.5s-7.5 3.355468-7.5 7.5v60.535156h-13.164062v-86.058594c13.410156 4.648438 28.09375 4.601563 41.328124.050782v23.375c0 4.140624 3.355469 7.5 7.5 7.5 4.140626 0 7.5-3.359376 7.5-7.5v-30.921876c17.335938-11.851562 27.742188-31.136718 27.742188-52.425781 0-21.480469-10.753906-41.332031-28.757812-53.101562-3.550782-2.320313-8.066407-2.511719-11.78125-.496094-.09375.046875-.171876.109375-.261719.164063-11.308594-15.429688-26.292969-21.765626-27.113281-22.101563-.046876-.019531-.097657-.039063-.144532-.058594l-62.105468-24.050781-27.5-10.652344-.054688-21.058594c14.234375-11.078124 24.109375-27.492187 26.585938-46.21875 17.390624-1.226562 30.128906-15.324218 30.128906-31.90625 0-11.003906-5.578125-20.847656-14.390625-26.617187 1.039062-2.382813 1.621093-5.003906 1.621093-7.757813v-50.777343c0-16.398438-14.207031-28.464844-28.886718-27.339844-2.015625.160156-4.273438-.886719-4.71875-3.175781-3.40625-17.410156-14.351563-25.871094-33.457032-25.871094h-3.355468c-4.144532 0-7.5 3.359375-7.5 7.5 0 4.144531 3.355468 7.5 7.5 7.5h3.355468c14.816407 0 17.316407 6.503906 18.734376 13.75 1.847656 9.457031 10.675781 16.015625 20.59375 15.253906 6.019531-.457031 12.730468 4.789063 12.730468 12.382813v50.773437c0 8.914063-19.890625 3.996094-19.890625-10.890625 0-3.992187-2.707031-7.457031-6.578125-8.429687-3.863281-.96875-7.878906.808594-9.761718 4.324218-6.273438 11.734376-18.78125 19.496094-32.492188 19.496094-15.601562 0-60.40625 0-75.726562 0-5.984376 0-11.164063-4.871094-11.164063-11.167968v-48.65625c0-20.3125 16.523437-36.835938 36.832031-36.835938h28.363282c4.144531 0 7.5-3.355469 7.5-7.5 0-4.140625-3.355469-7.5-7.5-7.5h-28.363282c-28.582031 0-51.835937 23.253906-51.835937 51.835938v48.65625c0 7.097656 2.84375 13.539062 7.445312 18.257812-6.503906 5.914062-10.429687 14.082031-10.429687 22.789062 0 16.59375 12.746094 30.675782 30.117187 31.902344 1.953125 14.921875 8.597657 28.753906 19.222657 39.667969 2.753906 2.828125 5.734374 5.378906 8.894531 7.671875v19.921875l-89.566407 34.722656c-.046874.019531-.09375.039063-.140624.058594-1.617188.664063-39.585938 16.78125-39.585938 61.125v156.246094c0 10.558593 8.585938 19.144531 19.140625 19.144531zm50.027344-133.375h95.105469v42.335938h-95.105469zm0 57.339844h95.105469v61.035156h-95.105469zm110.105469 0h95.09375v61.035156h-95.09375zm95.09375-15h-95.09375v-42.335938h73.703124c4.679688 9.605469 11.960938 18.28125 21.390626 24.746094zm67.535156-106.378906c10.457031 9.132812 16.53125 22.324218 16.53125 36.433593 0 27.117188-22.25 49.035157-49.574219 48.390625-26.023437-.613281-48.082031-22.964844-47.207031-49.988281.441406-13.605469 6.464844-26.089844 16.507812-34.839844v41.136719c0 3.929688 2.113282 7.589844 5.515625 9.554688l20.839844 12.03125c3.402344 1.964843 7.628906 1.964843 11.03125 0 15.265625-8.8125 12.148437-7.011719 20.839844-12.03125 3.261719-1.882813 5.515625-5.546876 5.515625-9.554688zm-15 3.601562v35.238281l-16.871094 9.742188-16.871094-9.742188v-45.9375c0-4.472656-2.738281-8.460937-6.015625-10.097656-3.640625-1.976563-8.15625-1.816406-11.652343.453125-22.390626 14.570312-32.683594 40.699219-27.589844 65.78125h-68.625v-52.765625c27.878906-1.96875 52.453125-16.484375 65.289062-42.898437l55.277344 21.40625c1.132812.5 19.589844 8.894531 27.058594 28.820312zm-199.476563-60.671875c3.898438 9.914063 13.367188 21.558594 32.695313 24.84375 2.40625.40625 4.152344 2.46875 4.152344 4.898437v8.703126c-12.058594-.847657-37.144532-6-50.59375-33.113282zm89.21875-.367187 13.878907 5.375c-13.695313 26.933593-38.988282 32.347656-51.246094 33.339843v-8.628906c0-2.425781 1.691406-4.476563 4.019531-4.878906 20.71875-3.550781 29.597656-16.171875 33.347656-25.207031zm26.289063-98.871094v-31.8125c1.066406-.15625 2.601562-.542969 3.328125-.789063 6.675781 2.457031 11.167969 8.703125 11.167969 15.863281 0 8.132813-5.800782 15.324219-14.496094 16.738282zm-156.875-16.738282c0-7.199218 5.15625-12.574218 10.738281-15.105468 1.335937.175781 2.457031.230468 3.761719.230468v31.613282c-8.71875-1.414063-14.5-8.621094-14.5-16.738282zm29.5 22.644532v-37.519532h60.378906c14.367188 0 27.816406-5.914062 37.457031-16.003906 3.046875 5.675782 8.1875 10.628906 14.539063 13.429688 0 46.515625.011718 39.019531-.039063 41.492187-.75 29.980469-25.398437 53.878907-55.242187 53.878907-34.121094 0-57.09375-26.425782-57.09375-55.277344zm85.179687 64.417968.035157 12.875c.007812 3.007813 1.007812 5.867188 2.710937 8.203126-1.90625 5.859374-7.339844 15.253906-22.71875 17.890624-3.410156.585938-6.480469 2.027344-9.027344 4.066407-2.570312-2.039063-5.664062-3.484375-9.105469-4.066407-15.332031-2.605468-20.222656-11.816406-21.769531-17.027343 2.152344-2.492188 3.433594-5.722657 3.433594-9.128907l-.003906-12.328124c17.558593 7.0625 38.347656 7.433593 56.445312-.484376zm-185.738281 108.011719c0-33.777343 28.507812-46.492187 30.246094-47.238281l54.402344-21.089844c12.566406 26.507813 36.742187 41.136719 64.625 42.699219v52.640625h-95.105469v-8.414062c0-4.140626-3.355469-7.5-7.5-7.5s-7.5 3.359374-7.5 7.5v141.789062h-35.027344c-2.28125 0-4.140625-1.859375-4.140625-4.144531zm0 0"/><path d="m104.828125 355.960938h21.414063c10.476562 0 19-8.523438 19-19.003907v-4c0-10.476562-8.523438-19-19-19h-21.414063c-10.476563 0-19 8.523438-19 19v4c0 10.480469 8.523437 19.003907 19 19.003907zm-4-23.003907c0-2.167969 1.832031-4 4-4h21.414063c2.167968 0 4 1.832031 4 4v4c0 2.167969-1.832032 4-4 4h-21.414063c-2.167969 0-4-1.832031-4-4zm0 0"/><path d="m220.3125 327.457031h-16c-4.144531 0-7.5 3.359375-7.5 7.5 0 4.144531 3.355469 7.5 7.5 7.5h16c4.144531 0 7.5-3.355469 7.5-7.5 0-4.140625-3.359375-7.5-7.5-7.5zm0 0"/></svg>