<?xml version="1.0" ?><!DOCTYPE svg  PUBLIC '-//W3C//DTD SVG 1.1//EN'  'http://www.w3.org/Graphics/SVG/1.1/DTD/svg11.dtd'><svg enable-background="new 0 0 24 24" height="24px" id="Layer_1" version="1.1" viewBox="0 0 24 24" width="24px" xml:space="preserve" xmlns="http://www.w3.org/2000/svg" xmlns:xlink="http://www.w3.org/1999/xlink"><g><path d="M12,4C3,4,0,12,0,12s3,8,12,8c9,0,12-8,12-8S21,4,12,4z M12,18c-6.1,0-8.9-4.3-9.8-6C3.1,10.3,6,6,12,6   c6.1,0,8.9,4.3,9.8,6C20.9,13.7,18,18,12,18z"/><path d="M12,7c-2.8,0-5,2.2-5,5s2.2,5,5,5s5-2.2,5-5S14.8,7,12,7z M12,16c-2.2,0-4-1.8-4-4s1.8-4,4-4s4,1.8,4,4S14.2,16,12,16z"/><circle cx="12" cy="12" r="3"/></g></svg>