<?xml version="1.0"?>
<svg xmlns="http://www.w3.org/2000/svg" id="Layer_1" data-name="Layer 1" viewBox="0 0 512 512" width="512" height="512"><title>Business idea</title><path d="M266.211,178.442l.5-5.01a6,6,0,0,0-11.943-1.178l-.493,5.008a24.763,24.763,0,0,0,1.183,49.141,12.754,12.754,0,0,1-2.371,25.4c-.044,0-.087-.015-.131-.02s-.092,0-.139-.007a12.767,12.767,0,0,1-11.306-13.927,6,6,0,0,0-11.943-1.178,24.8,24.8,0,0,0,16.31,25.743l-.579,5.87a6,6,0,0,0,5.383,6.56c.2.02.4.029.6.029a6,6,0,0,0,5.964-5.411l.581-5.894a24.743,24.743,0,0,0-1.187-49.1,12.758,12.758,0,1,1,13.947-11.444,6,6,0,0,0,11.943,1.177,24.783,24.783,0,0,0-16.31-25.753Z"/><path d="M350.991,125.09A135.54,135.54,0,1,0,164.3,321.586a85.612,85.612,0,0,1,27.381,63.007v64.691a25.967,25.967,0,0,0,25.937,25.938H250V495.1a6,6,0,0,0,12,0v-19.88h32.378a25.967,25.967,0,0,0,25.937-25.938V384.5a87.4,87.4,0,0,1,28.1-63.572,135.419,135.419,0,0,0,2.578-195.833ZM294.378,463.222H217.622a13.953,13.953,0,0,1-13.937-13.938v-2.572h68.751a6,6,0,0,0,0-12H203.685V418.2H220.6a6,6,0,1,0,0-12H203.685v-15.61h104.63V406.2h-67.08a6,6,0,0,0,0,12h67.08v16.51H293.072a6,6,0,0,0,0,12h15.243v2.572A13.953,13.953,0,0,1,294.378,463.222Zm45.855-151.079a99.765,99.765,0,0,0-31.721,66.449H203.5a97.481,97.481,0,0,0-31.075-65.844A123.59,123.59,0,0,1,255.992,98.114c.386,0,.775,0,1.162.006a123.589,123.589,0,0,1,83.079,214.023Z"/><path d="M264.414,135.529a85.742,85.742,0,1,0-16.828,170.656q4.3.425,8.572.422a85.746,85.746,0,0,0,8.256-171.078Zm64.972,92.564a73.735,73.735,0,1,1-73.522-80.986q3.669,0,7.372.364a73.741,73.741,0,0,1,66.15,80.622Z"/><path d="M254.734,16.9V56.772a6,6,0,0,0,12,0V16.9a6,6,0,0,0-12,0Z"/><path d="M446,200.9H406.126a6,6,0,0,0,0,12H446a6,6,0,0,0,0-12Z"/><path d="M105.874,200.9H66a6,6,0,0,0,0,12h39.874a6,6,0,0,0,0-12Z"/><path d="M369.317,102.066l31.115-31.114a6,6,0,0,0-8.485-8.486L360.832,93.58a6,6,0,0,0,8.485,8.486Z"/><path d="M111.568,62.467a6,6,0,0,0,0,8.485l31.115,31.114a6,6,0,0,0,8.485-8.486L120.053,62.466A6,6,0,0,0,111.568,62.467Z"/></svg>
