<?xml version="1.0"?>
<svg xmlns="http://www.w3.org/2000/svg" id="Layer_1" data-name="Layer 1" viewBox="0 0 512 512" width="512" height="512"><title>Light bulb</title><path d="M334.924,34.647A176.861,176.861,0,0,0,88.249,248.833C102.874,292.594,133,328.22,174,349.494V453.261A7.97,7.97,0,0,0,182.217,461H329.783A7.97,7.97,0,0,0,338,453.261V349.5a176.6,176.6,0,0,0,76.267-77.771C457.785,184.521,422.133,78.167,334.924,34.647ZM190,445V375H322v70ZM399.842,264.585a161.749,161.749,0,0,1-72.062,72.063,6.422,6.422,0,0,0-.676.453,7.9,7.9,0,0,0-5.1,7.49V359H190V344.591a7.9,7.9,0,0,0-5.1-7.49,7.2,7.2,0,0,0-.73-.453A160.768,160.768,0,0,1,327.776,48.964C407.091,88.544,439.421,185.271,399.842,264.585Z"/><path d="M329.783,480H182.217a8,8,0,1,0,0,16H329.783a8,8,0,0,0,0-16Z"/><path d="M255.223,179.763a25.863,25.863,0,1,0,25.862,25.862A25.892,25.892,0,0,0,255.223,179.763Zm0,35.725a9.863,9.863,0,1,1,9.862-9.863A9.874,9.874,0,0,1,255.223,215.488Z"/><path d="M351.011,206.169a25.782,25.782,0,0,0-6.88.937c-.362-.49-.718-.98-1.089-1.47q4.55-6.02,8.245-12.053c14.38-23.521,16.9-44.356,7.088-58.666s-30.151-19.475-57.274-14.548c-.353.064-.714.146-1.069.214-.144-.33-.281-.674-.427-1-11.271-25.16-27.033-39.016-44.382-39.016a31.97,31.97,0,0,0-3.44.2A25.846,25.846,0,0,0,213.2,114.624q-1.451,2.883-2.8,5.956c-.35-.066-.707-.147-1.056-.211-27.128-4.928-47.465.238-57.274,14.548s-7.292,35.145,7.087,58.666q3.683,6.023,8.249,12.058-.43.57-.852,1.138A25.851,25.851,0,0,0,146.3,253.3c-.536,8.8,1.42,16.681,5.774,23.033,7.387,10.777,20.743,16.368,38.474,16.367a105.535,105.535,0,0,0,18.8-1.819c.353-.064.714-.146,1.068-.213.145.33.281.674.428,1,11.27,25.16,27.032,39.016,44.381,39.016s33.111-13.856,44.382-39.016c.146-.327.283-.671.428-1,.354.067.715.149,1.068.213a105.541,105.541,0,0,0,18.8,1.819c17.729,0,31.088-5.591,38.475-16.367,4.191-6.115,6.163-13.656,5.824-22.066a25.855,25.855,0,0,0-13.188-48.1Zm9.863,25.863a9.863,9.863,0,1,1-9.863-9.863A9.874,9.874,0,0,1,360.874,232.032ZM290.063,271.8a173.235,173.235,0,0,1-16.962-6c5.473-3.2,10.92-6.642,16.3-10.326,2.029-1.391,4.02-2.809,5.992-4.24A176.669,176.669,0,0,1,290.063,271.8Zm-69.713.01a176.87,176.87,0,0,1-5.3-20.576q2.959,2.148,6,4.244c5.376,3.684,10.823,7.124,16.3,10.326A173.564,173.564,0,0,1,220.35,271.81Zm-25.457-58.839q-3.567-3.639-6.818-7.329,3.248-3.68,6.808-7.317-.1,3.633-.1,7.3C194.783,208.087,194.827,210.533,194.893,212.971Zm35.2,29.309c-6.421-4.4-12.532-9.018-18.284-13.781-.677-7.438-1.03-15.089-1.03-22.874s.349-15.418,1.021-22.837c5.779-4.8,11.9-9.432,18.293-13.818a248.842,248.842,0,0,1,25.127-15.151A249.052,249.052,0,0,1,280.35,168.97c6.4,4.387,12.512,9.02,18.286,13.812.676,7.428,1.028,15.07,1.028,22.843,0,7.936-.359,15.574-1.024,22.868-5.754,4.765-11.868,9.385-18.29,13.787a248.965,248.965,0,0,1-25.127,15.152A248.842,248.842,0,0,1,230.1,242.28Zm-9.772-102.847a173.28,173.28,0,0,1,17.021,6.014c-5.473,3.2-10.92,6.641-16.3,10.326-2.037,1.4-4.039,2.826-6.025,4.269A176.36,176.36,0,0,1,220.325,139.433Zm69.772.008a177.088,177.088,0,0,1,5.3,20.58c-1.977-1.436-3.97-2.858-6-4.248-5.375-3.685-10.822-7.125-16.3-10.326A172.859,172.859,0,0,1,290.1,139.441Zm25.458,58.868q3.567,3.641,6.818,7.331-3.249,3.689-6.819,7.331c.066-2.438.11-4.884.11-7.346S315.62,200.737,315.555,198.309Zm29.622-54.345c5.943,8.669,3.195,23.713-7.541,41.274-1.573,2.572-3.293,5.153-5.138,7.735a228.7,228.7,0,0,0-18.626-18.22,212.087,212.087,0,0,0-8.15-38.93C325.074,132.623,339.41,135.549,345.177,143.964ZM234.513,90.138A9.862,9.862,0,1,1,224.65,100,9.873,9.873,0,0,1,234.513,90.138Zm-8.323,34.343A25.849,25.849,0,0,0,260.375,100a26.263,26.263,0,0,0-.133-2.629c8.568,2.72,17.071,12.257,24.019,27.132a204.181,204.181,0,0,0-29.038,11.426A204.314,204.314,0,0,0,226.181,124.5Zm-53.379,60.757c-10.736-17.561-13.484-32.6-7.541-41.275,5.766-8.412,20.1-11.337,39.441-8.143a212.742,212.742,0,0,0-8.143,38.939,228.7,228.7,0,0,0-18.621,18.211C176.1,190.389,174.382,187.809,172.811,185.238Zm-11.822,36.931a9.863,9.863,0,1,1-9.863,9.863A9.874,9.874,0,0,1,160.989,222.169Zm4.281,45.119a18.425,18.425,0,0,1-3.016-9.426,25.85,25.85,0,0,0,24.112-30.8q4.882,4.8,10.213,9.468a211.982,211.982,0,0,0,8.146,38.9C185.372,278.625,171.037,275.7,165.27,267.288Zm89.953,47.4c-10.2,0-20.732-10.156-29.037-27.937a204.42,204.42,0,0,0,29.038-11.426A204.193,204.193,0,0,0,284.2,286.728C275.87,304.44,265.273,314.685,255.223,314.685Zm50.5-39.257a211.982,211.982,0,0,0,8.146-38.9q6.45-5.639,12.251-11.492a25.842,25.842,0,0,0,22.088,32.7,18.474,18.474,0,0,1-3.03,9.549C339.41,275.7,325.074,278.628,305.722,275.428Z"/></svg>
