<?xml version="1.0" encoding="iso-8859-1"?>
<!-- Generator: Adobe Illustrator 19.0.0, SVG Export Plug-In . SVG Version: 6.00 Build 0)  -->
<svg version="1.1" id="Capa_1" xmlns="http://www.w3.org/2000/svg" xmlns:xlink="http://www.w3.org/1999/xlink" x="0px" y="0px" width="512" height="512"
	 viewBox="0 0 512 512" style="enable-background:new 0 0 512 512;" xml:space="preserve">
<g>
	<g>
		<path d="M341,200H171c-16.542,0-30,13.458-30,30v40c0,16.542,13.458,30,30,30h170c16.542,0,30-13.458,30-30v-40
			C371,213.458,357.542,200,341,200z M351,270c0,5.514-4.486,10-10,10H171c-5.514,0-10-4.486-10-10v-40c0-5.514,4.486-10,10-10h170
			c5.514,0,10,4.486,10,10V270z"/>
	</g>
</g>
<g>
	<g>
		<path d="M316,240c-5.521,0-10,4.49-10,10s4.479,10,10,10c5.51,0,10-4.49,10-10S321.51,240,316,240z"/>
	</g>
</g>
<g>
	<g>
		<path d="M276,240c-5.51,0-10,4.49-10,10s4.49,10,10,10s10-4.49,10-10S281.51,240,276,240z"/>
	</g>
</g>
<g>
	<g>
		<path d="M236,240h-40c-5.51,0-10,4.49-10,10s4.49,10,10,10h40c5.51,0,10-4.49,10-10S241.51,240,236,240z"/>
	</g>
</g>
<g>
	<g>
		<path d="M361,80h-10V30c0-16.542-13.458-30-30-30H191c-16.542,0-30,13.458-30,30v50h-10c-27.57,0-50,22.43-50,50v332
			c0,27.57,22.43,50,50,50h210c27.57,0,50-22.43,50-50V130C411,102.43,388.57,80,361,80z M311,20h10c5.514,0,10,4.486,10,10v90h-20
			V20z M271,20h20v100h-20V20z M181,30c0-5.514,4.486-10,10-10h60v100h-70V30z M391,462c0,16.542-13.458,30-30,30H151
			c-16.542,0-30-13.458-30-30V210c0-16.542,13.458-30,30-30h210c16.542,0,30,13.458,30,30V462z M391,170.023
			c-8.362-6.29-18.754-10.023-30-10.023H151c-11.246,0-21.638,3.733-30,10.023V130c0-16.542,13.458-30,30-30h10v20h-10
			c-5.522,0-10,4.478-10,10c0,5.522,4.478,10,10,10h210c5.522,0,10-4.478,10-10c0-5.522-4.478-10-10-10h-10v-20h10
			c16.542,0,30,13.458,30,30V170.023z"/>
	</g>
</g>
<g>
	<g>
		<path d="M176,321c-5.521,0-10,4.479-10,10c0,5.52,4.479,10,10,10c5.52,0,10-4.48,10-10C186,325.479,181.52,321,176,321z"/>
	</g>
</g>
<g>
	<g>
		<path d="M256,321c-5.521,0-10,4.479-10,10c0,5.52,4.479,10,10,10c5.52,0,10-4.48,10-10C266,325.479,261.52,321,256,321z"/>
	</g>
</g>
<g>
	<g>
		<path d="M336,321c-5.521,0-10,4.479-10,10c0,5.52,4.479,10,10,10c5.52,0,10-4.48,10-10C346,325.479,341.52,321,336,321z"/>
	</g>
</g>
<g>
	<g>
		<path d="M256,361c-5.521,0-10,4.479-10,10c0,5.52,4.479,10,10,10c5.52,0,10-4.48,10-10C266,365.479,261.52,361,256,361z"/>
	</g>
</g>
<g>
	<g>
		<path d="M176,361c-5.521,0-10,4.479-10,10c0,5.52,4.479,10,10,10c5.52,0,10-4.48,10-10C186,365.479,181.52,361,176,361z"/>
	</g>
</g>
<g>
	<g>
		<path d="M336,361c-5.521,0-10,4.479-10,10c0,5.52,4.479,10,10,10c5.52,0,10-4.48,10-10C346,365.479,341.52,361,336,361z"/>
	</g>
</g>
<g>
	<g>
		<path d="M336,401c-5.521,0-10,4.479-10,10c0,5.52,4.479,10,10,10c5.52,0,10-4.48,10-10C346,405.479,341.52,401,336,401z"/>
	</g>
</g>
<g>
	<g>
		<path d="M176,401c-5.521,0-10,4.479-10,10c0,5.52,4.479,10,10,10c5.52,0,10-4.48,10-10C186,405.479,181.52,401,176,401z"/>
	</g>
</g>
<g>
	<g>
		<path d="M256,401c-5.521,0-10,4.479-10,10c0,5.52,4.479,10,10,10c5.52,0,10-4.48,10-10C266,405.479,261.52,401,256,401z"/>
	</g>
</g>
<g>
	<g>
		<path d="M176,441c-5.521,0-10,4.479-10,10c0,5.52,4.479,10,10,10c5.52,0,10-4.48,10-10C186,445.479,181.52,441,176,441z"/>
	</g>
</g>
<g>
	<g>
		<path d="M256,441c-5.521,0-10,4.479-10,10c0,5.52,4.479,10,10,10c5.52,0,10-4.48,10-10C266,445.479,261.52,441,256,441z"/>
	</g>
</g>
<g>
	<g>
		<path d="M336,441c-5.521,0-10,4.479-10,10c0,5.52,4.479,10,10,10c5.52,0,10-4.48,10-10C346,445.479,341.52,441,336,441z"/>
	</g>
</g>
<g>
</g>
<g>
</g>
<g>
</g>
<g>
</g>
<g>
</g>
<g>
</g>
<g>
</g>
<g>
</g>
<g>
</g>
<g>
</g>
<g>
</g>
<g>
</g>
<g>
</g>
<g>
</g>
<g>
</g>
</svg>
