<svg height="445pt" viewBox="0 -29 445.00121 445" width="445pt" xmlns="http://www.w3.org/2000/svg"><path d="m320.101562 255.289062h-9.101562v46h9.101562c5.597657 0 8.898438-3.375 8.898438-10.175781v-25.902343c0-6.800782-3.300781-9.921876-8.898438-9.921876zm0 0"/><path d="m191.949219 255.210938c-5.597657 0-8.949219 3.101562-8.949219 10v26.5c0 6.902343 3.351562 10 8.949219 10 5.601562 0 9.050781-3.097657 9.050781-10v-26.5c0-6.898438-3.449219-10-9.050781-10zm0 0"/><path d="m398.5 171.289062h-15.050781l-129.667969-121.320312c2.449219-4.796875 3.722656-10.105469 3.71875-15.492188-.011719-19.054687-15.46875-34.4882808-34.523438-34.476562-19.054687.0117188-34.488281 15.46875-34.476562 34.523438-.003906 5.367187 1.273438 10.660156 3.71875 15.4375l-129.667969 121.328124h-15.050781c-25.914062 0-47.5 21.335938-47.5 47.25v121c0 25.917969 21.585938 46.75 47.5 46.75h351c12.382812.023438 24.261719-4.902343 32.996094-13.683593 8.730468-8.777344 13.59375-20.683594 13.503906-33.066407v-121c0-25.914062-20.585938-47.25-46.5-47.25zm-273.101562 144.425782c-13.097657 0-24.097657-6.398438-24.097657-13 0-3.398438 3-8.398438 6.800781-8.398438 4.699219 0 7.699219 7.398438 17 7.398438 4.597657 0 9.699219-1.800782 9.699219-6.601563 0-12.097656-31.699219-10-31.699219-33.398437 0-15 13.097657-20.699219 25.597657-20.699219 5.300781 0 19.902343 1 19.902343 8.800781 0 2.699219-1.800781 8.199219-6.203124 8.199219-3.597657 0-5.5-3.800781-13.699219-3.800781-7.097657 0-10 2.898437-10 6 0 10 31.699219 8.101562 31.699219 33.300781 0 14.398437-10.5 22.199219-25 22.199219zm90.601562-24c0 17.199218-10.75 23.601562-24.550781 23.601562s-24.449219-6.402344-24.449219-23.601562v-26.5c0-17.199219 10.648438-23.601563 24.449219-23.601563s24.550781 6.402344 24.550781 23.601563zm58.800781 22.574218h-31.601562c-3.398438 0-7.199219-1.175781-7.199219-4.375v-63.597656c0-3.300781 4.101562-4.703125 8-4.703125s8 1.402344 8 4.703125v54.972656h22.800781c3 0 4.5 3.101563 4.5 6.5 0 3.402344-1.5 6.5-4.5 6.5zm70.199219-23.175781c0 17.199219-11.101562 23.175781-24.898438 23.175781h-17.703124c-4.097657 0-6.398438-1.773437-6.398438-4.273437v-63.699219c0-2.5 2.300781-5.023437 6.398438-5.023437h17.703124c13.796876 0 24.898438 6.722656 24.898438 23.921875zm-261.972656-119.824219 117.949218-110.339843c12.730469 10.71875 31.332032 10.703125 44.046876-.03125l117.949218 110.371093zm0 0"/></svg>