<svg height="512pt" viewBox="0 -26 512.00821 512" width="512pt" xmlns="http://www.w3.org/2000/svg"><path d="m187.742188 153.546875c-65.980469 0-119.46875 53.488281-119.46875 119.46875 0 65.976563 53.488281 119.464844 119.46875 119.464844 65.980468 0 119.464843-53.488281 119.464843-119.464844-.070312-65.953125-53.515625-119.398437-119.464843-119.46875zm0 221.867187c-56.554688 0-102.402344-45.84375-102.402344-102.398437s45.847656-102.402344 102.402344-102.402344c56.554687 0 102.398437 45.847657 102.398437 102.402344-.058594 56.527344-45.871094 102.335937-102.398437 102.398437zm0 0"/><path d="m254.839844 220.464844c-13.886719-17.847656-34.316406-29.421875-56.765625-32.160156-22.449219-2.738282-45.0625 3.589843-62.828125 17.578124-24.1875 18.6875-36.515625 48.898438-32.304688 79.171876 4.207032 30.273437 24.304688 55.976562 52.671875 67.359374 28.367188 11.382813 60.65625 6.699219 84.625-12.269531 17.855469-13.878906 29.441407-34.304687 32.1875-56.753906 2.75-22.445313-3.570312-45.0625-17.550781-62.839844zm-111.199219 104.601562c10.976563-4.992187 20.554687-12.613281 27.886719-22.183594.625.339844 1.222656.699219 1.859375.996094.386719.179688.726562.425782 1.121093.597656 1.449219.558594 2.933594 1.023438 4.445313 1.382813.453125.121094.851563.308594 1.320313.410156 1.941406 11.53125.101562 23.378907-5.238282 33.78125-11.585937-2.183593-22.40625-7.347656-31.394531-14.984375zm-23.894531-46.367187c8.148437 3.132812 16.8125 4.703125 25.542968 4.625 3.292969-.023438 6.582032-.222657 9.855469-.605469.3125 1.207031.683594 2.394531 1.117188 3.566406.171875.390625.417969.734375.597656 1.117188.609375 1.335937 1.304687 2.632812 2.082031 3.882812-6.800781 9.5-16.480468 16.558594-27.605468 20.128906-6.636719-9.726562-10.625-21.011718-11.570313-32.75zm112.097656-57.738281c-10.976562 4.996093-20.554688 12.613281-27.890625 22.1875-.621094-.34375-1.21875-.699219-1.859375-1-.382812-.179688-.722656-.425782-1.117188-.597657-1.449218-.558593-2.933593-1.019531-4.445312-1.382812-.453125-.117188-.855469-.304688-1.324219-.40625-1.9375-11.53125-.101562-23.382813 5.242188-33.785157 11.585937 2.1875 22.40625 7.351563 31.394531 14.984376zm-55.691406 64.46875c-1.574219-1.464844-2.855469-3.21875-3.78125-5.160157-.109375-.230469-.261719-.445312-.355469-.675781-.238281-.617188-.433594-1.25-.589844-1.894531-.128906-.453125-.316406-.851563-.410156-1.339844-.09375-.484375-.058594-.726563-.109375-1.082031-.296875-1.515625-.296875-3.070313 0-4.582032.050781-.359374 0-.734374.109375-1.09375.113281-.359374.273437-.855468.402344-1.332031.164062-.644531.363281-1.28125.597656-1.902343.09375-.230469.246094-.433594.347656-.664063 1.691407-3.542969 4.546875-6.398437 8.089844-8.089844.230469-.113281.445313-.265625.675781-.367187.621094-.230469 1.25-.425782 1.894532-.582032.441406-.128906.851562-.316406 1.339843-.410156.484375-.09375.722657-.058594 1.082031-.109375 1.515626-.296875 3.070313-.296875 4.582032 0 .359375.050781.734375 0 1.09375.109375.359375.113282.851562.273438 1.332031.402344.644531.164062 1.277344.359375 1.902344.589844.230469.101562.433593.253906.664062.355468 3.550781 1.691407 6.410157 4.550782 8.097657 8.101563.105468.230469.257812.433594.351562.664063.234375.621093.433594 1.257812.597656 1.902343.128906.445313.304688.855469.402344 1.332031.09375.476563.058594.734376.109375 1.09375.296875 1.511719.296875 3.066407 0 4.582032-.050781.355468 0 .730468-.109375 1.082031-.113281.351563-.285156.851563-.410156 1.339844-.15625.644531-.355469 1.277343-.589844 1.894531-.09375.230469-.246094.445312-.359375.675781-.921875 1.941407-2.207031 3.695313-3.78125 5.160157-6.601563 5.875-16.554687 5.886718-23.175781.035156zm1.945312-45.03125c-1.214844.304687-2.410156.675781-3.582031 1.121093-.46875.195313-.855469.492188-1.332031.714844-1.265625.574219-2.496094 1.230469-3.679688 1.964844-9.507812-6.792969-16.578125-16.464844-20.164062-27.589844 9.734375-6.636719 21.027344-10.628906 32.769531-11.578125-4.226563 11.292969-5.601563 23.449219-4.011719 35.402344zm19.285156 65.164062c1.21875-.304688 2.417969-.675781 3.59375-1.121094.394532-.167968.734376-.417968 1.117188-.597656 1.339844-.609375 2.636719-1.304688 3.882812-2.082031 9.523438 6.808593 16.59375 16.507812 20.164063 27.65625-9.730469 6.640625-21.023437 10.628906-32.765625 11.582031 4.222656-11.292969 5.601562-23.453125 4.007812-35.40625zm22.9375-42.226562c-.300781-1.214844-.671874-2.417969-1.117187-3.589844-.167969-.394532-.417969-.734375-.597656-1.117188-.609375-1.339844-1.304688-2.636718-2.082031-3.882812 6.804687-9.503906 16.492187-16.566406 27.625-20.132813 6.636718 9.734375 10.625 21.027344 11.578124 32.769531-11.292968-4.226562-23.453124-5.601562-35.40625-4.011718zm-84.632812-34.421876c4.996094 10.976563 12.613281 20.554688 22.1875 27.886719-.332031.625-.699219 1.21875-1 1.859375-.175781.386719-.425781.726563-.597656 1.117188-.558594 1.453125-1.019532 2.9375-1.378906 4.449218-.121094.449219-.308594.851563-.410157 1.320313-11.53125 1.933594-23.378906.097656-33.785156-5.238281 2.1875-11.585938 7.351563-22.40625 14.984375-31.394532zm104.105469 88.199219c-4.992188-10.972656-12.613281-20.550781-22.183594-27.886719.332031-.621093.699219-1.21875.996094-1.859374.179687-.382813.429687-.726563.597656-1.117188.558594-1.449219 1.023437-2.933594 1.382813-4.445312.121093-.453126.308593-.855469.410156-1.324219 11.53125-1.933594 23.378906-.097657 33.785156 5.238281-2.1875 11.589844-7.351562 22.410156-14.988281 31.394531zm0 0"/><path d="m477.875 34.082031h-34.132812c-16.242188.019531-30.222657 11.464844-33.453126 27.382813-2.933593-1.160156-6.058593-1.765625-9.214843-1.785156h-8.53125c-7.988281.023437-15.503907 3.792968-20.300781 10.183593l-76.304688 6.191407-8.355469-26.492188c8.964844-2.859375 13.925781-12.429688 11.09375-21.402344l-5.121093-16.265625c-2.855469-8.964843-12.429688-13.925781-21.402344-11.09375l-89.53125 28.210938c-8.96875 2.855469-13.933594 12.4375-11.09375 21.410156l5.121094 16.273437c2.820312 8.964844 12.367187 13.949219 21.332031 11.136719l1.894531 6.023438-20.898438 1.707031h-1.160156l-10.929687.894531-.613281.070313h-.085938c-100.214844 11.582031-173.359375 100.296875-165.628906 200.878906 7.734375 100.585938 93.578125 177.078125 194.386718 173.207031 100.804688-3.871093 180.53125-86.71875 180.53125-187.597656.054688-23.359375-4.285156-46.519531-12.800781-68.269531h10.921875c4.816406 5.410156 11.703125 8.511718 18.945313 8.535156h8.53125c5.5625-.027344 10.957031-1.886719 15.359375-5.28125 6.394531 8.675781 16.53125 13.800781 27.308594 13.816406h34.132812c18.851562 0 34.132812-15.285156 34.132812-34.136718v-119.464844c0-18.851563-15.28125-34.132813-34.132812-34.132813zm-68.265625 93.867188h-25.601563v-17.066407h25.601563zm-25.601563 17.066406h25.601563v17.066406h-25.601563zm8.535157-68.269531h8.53125c4.714843 0 8.535156 3.820312 8.535156 8.535156v8.535156h-25.601563v-8.535156c0-4.714844 3.820313-8.535156 8.535157-8.535156zm-204.800781-31.46875 89.515624-28.261719 5.117188 16.273437-8.078125 2.558594h-.027344l-73.214843 23.125h-.050782l-8.117187 2.558594zm26.582031 27.410156 56.949219-17.988281 7.210937 22.765625-61.105469 4.964844zm101.417969 114.992188c-4.714844 0-8.535157 3.820312-8.535157 8.535156 0 4.710937 3.820313 8.53125 8.535157 8.53125h28.414062c9.449219 21.519531 14.304688 44.769531 14.253906 68.269531-.011718 91.613281-72.355468 166.878906-163.898437 170.511719-91.539063 3.636718-169.625-65.652344-176.898438-156.980469-7.273437-91.324219 58.855469-172.101563 149.820313-183.003906.394531 0 .785156-.027344 1.175781-.085938 3.414063-.46875 6.828125-.699219 9.917969-.851562h1.210937l187.203125-15.191407v100.265626zm85.332031 8.535156h-8.53125c-4.714844 0-8.535157-3.820313-8.535157-8.535156v-8.53125h25.601563v8.53125c0 4.714843-3.820313 8.535156-8.535156 8.535156zm25.601562-8.535156v-119.464844c0-9.425782 7.640625-17.066406 17.066407-17.066406h17.066406v153.597656h-17.066406c-9.425782 0-17.066407-7.640625-17.066407-17.066406zm68.265625 0c0 9.425781-7.640625 17.066406-17.066406 17.066406v-153.597656c9.425781 0 17.066406 7.640624 17.066406 17.066406zm0 0"/></svg>