<?xml version="1.0" encoding="UTF-8"?><!DOCTYPE svg PUBLIC "-//W3C//DTD SVG 1.1//EN" "http://www.w3.org/Graphics/SVG/1.1/DTD/svg11.dtd"><svg xmlns="http://www.w3.org/2000/svg" xmlns:xlink="http://www.w3.org/1999/xlink" xmlns:sketch="http://www.bohemiancoding.com/sketch/ns"><symbol id="icon-battery" viewBox="0 0 60 60">
<g>
	<path d="M42.536,4H36V0H24v4h-6.536C15.554,4,14,5.554,14,7.464v49.072C14,58.446,15.554,60,17.464,60h25.071
		C44.446,60,46,58.446,46,56.536V7.464C46,5.554,44.446,4,42.536,4z M44,56.536C44,57.344,43.343,58,42.536,58H17.464
		C16.657,58,16,57.344,16,56.536V7.464C16,6.656,16.657,6,17.464,6H24h12h6.536C43.343,6,44,6.656,44,7.464V56.536z"/>
	<path d="M37,29h-3V17.108c0.013-0.26-0.069-0.515-0.236-0.72c-0.381-0.467-1.264-0.463-1.642,0.004
		c-0.026,0.032-0.05,0.066-0.072,0.103L22.15,32.474c-0.191,0.309-0.2,0.696-0.023,1.013C22.303,33.804,22.637,34,23,34h4
		l0.002,12.929h0.001c0.001,0.235,0.077,0.479,0.215,0.657C27.407,47.833,27.747,48,28.058,48c0.305,0,0.636-0.16,0.825-0.398
		c0.04-0.05,0.074-0.103,0.104-0.159l8.899-16.979c0.163-0.31,0.151-0.682-0.03-0.981S37.35,29,37,29z"/>
</g>

</symbol><symbol id="icon-calendar" viewBox="0 0 512 512">
<g>
	<g>
		<path d="M452,40h-24V0h-40v40H124V0H84v40H60C26.916,40,0,66.916,0,100v352c0,33.084,26.916,60,60,60h392
			c33.084,0,60-26.916,60-60V100C512,66.916,485.084,40,452,40z M472,452c0,11.028-8.972,20-20,20H60c-11.028,0-20-8.972-20-20V188
			h432V452z M472,148H40v-48c0-11.028,8.972-20,20-20h24v40h40V80h264v40h40V80h24c11.028,0,20,8.972,20,20V148z"/>
	</g>
</g>
<g>
	<g>
		<rect x="76" y="230" width="40" height="40"/>
	</g>
</g>
<g>
	<g>
		<rect x="156" y="230" width="40" height="40"/>
	</g>
</g>
<g>
	<g>
		<rect x="236" y="230" width="40" height="40"/>
	</g>
</g>
<g>
	<g>
		<rect x="316" y="230" width="40" height="40"/>
	</g>
</g>
<g>
	<g>
		<rect x="396" y="230" width="40" height="40"/>
	</g>
</g>
<g>
	<g>
		<rect x="76" y="310" width="40" height="40"/>
	</g>
</g>
<g>
	<g>
		<rect x="156" y="310" width="40" height="40"/>
	</g>
</g>
<g>
	<g>
		<rect x="236" y="310" width="40" height="40"/>
	</g>
</g>
<g>
	<g>
		<rect x="316" y="310" width="40" height="40"/>
	</g>
</g>
<g>
	<g>
		<rect x="76" y="390" width="40" height="40"/>
	</g>
</g>
<g>
	<g>
		<rect x="156" y="390" width="40" height="40"/>
	</g>
</g>
<g>
	<g>
		<rect x="236" y="390" width="40" height="40"/>
	</g>
</g>
<g>
	<g>
		<rect x="316" y="390" width="40" height="40"/>
	</g>
</g>
<g>
	<g>
		<rect x="396" y="310" width="40" height="40"/>
	</g>
</g>
<g>
</g>
<g>
</g>
<g>
</g>
<g>
</g>
<g>
</g>
<g>
</g>
<g>
</g>
<g>
</g>
<g>
</g>
<g>
</g>
<g>
</g>
<g>
</g>
<g>
</g>
<g>
</g>
<g>
</g>
</symbol><symbol id="icon-call" viewBox="0 0 411595 411595">
<g>
	<path d="M284.395,215.803c-0.8,1.2-0.8,2.4-1.2,4c-0.4,5.2,3.6,10,8.8,10.4c5.2,0.4,10-3.6,10.4-8.8c0-1.2,0-2.4,0.4-4.4
				c0-2,0-3.2,0-4.4c0-11.6-2-22.8-5.6-33.6c-4.8-14-13.2-26.4-23.2-36.8c-12.4-12.4-27.6-21.2-44.8-26c-8-2-16.8-3.2-25.2-3.2
				c-2.8,0-5.6,0-8.8,0.4c-2.8,0.4-5.6,0.8-8.4,1.2c-5.2,0.8-8.8,6-7.6,10.8c0.8,5.2,6,8.8,10.8,7.6c2.4-0.4,4.4-0.8,6.8-0.8
				c0.4,0,0.8,0,1.2,0c2,0,4-0.4,6-0.4c22,0,42.4,8.8,56.8,23.6c14.4,14.4,23.2,34,23.6,56v0.8
				C284.395,213.803,284.395,215.003,284.395,215.803z"/>
			<path d="M337.195,224.603c-0.4,5.2,3.6,10,8.8,10.4c5.2,0.4,10-3.6,10.4-8.8c0.4-4.4,0.4-8.8,0.4-13.2c0-8.8-0.8-17.2-2-25.6
				c-5.2-32-20.8-60.8-42.8-82.8c-25.2-25.2-58.8-41.6-96-44.4c-4-0.4-8.4-0.4-12.4-0.4c-4.4,0-8.8,0-13.2,0.4
				c-4.4,0.4-8.8,0.8-13.2,1.6c-5.2,0.8-8.8,6-7.6,10.8c0.8,5.2,6,8.8,10.8,7.6c2.8-0.4,5.2-0.8,8-1.2c1.2,0,2.4-0.4,3.6-0.4
				c4-0.4,8-0.4,11.6-0.4c13.6,0,26.4,2,38.8,5.6c21.6,6.4,40.8,18,56.4,33.6c12.8,12.8,23.2,28.4,30,45.2c6,15.2,9.6,32,9.6,49.6
				c0,1.2,0,2.8,0,4C337.595,219.403,337.195,221.803,337.195,224.603z"/>
			<path d="M350.795,66.203c-38-38-90-61.2-147.6-61.2c-6,0-12,0.4-18,0.8s-12,1.2-18,2.4c-5.2,0.8-8.8,6-7.6,10.8
				c0.8,5.2,6,8.8,10.8,7.6c2.8-0.4,5.2-0.8,8-1.2c2.8-0.4,5.6-0.8,8.4-0.8c5.6-0.4,10.8-0.8,16.4-0.8c52,0,99.2,21.2,133.6,55.2
				c34,34,55.2,81.2,55.2,133.6c0,2.8,0,6,0,8.8c0,2.4-0.4,4.8-0.4,7.6c-0.4,5.2,3.6,10,8.8,10.4c5.2,0.4,10-3.6,10.4-8.8
				c0.4-6,0.8-12,0.8-17.6C411.595,155.803,388.395,103.803,350.795,66.203z"/>
			<path d="M396.795,308.603l-70.8-38c-23.6-12.8-24.4-4.4-49.2,22c-6,6.4-17.2,23.2-30.4,20c-27.6-6.8-79.2-47.2-96-65.6
				c-8-8.8-42.4-50.8-42.8-64.4c-0.8-20.8,44.8-31.2,30-70.8l-31.6-70.8c-29.6-68-112.4,40.8-105.6,91.6
				c17.6,125.2,237.2,327.6,359.6,260.8C387.195,378.203,423.995,325.003,396.795,308.603z"/>
</g>

</symbol><symbol id="icon-car" viewBox="0 0 48997 48998">
<g>
	<path d="M45.961,18.702c-0.033-0.038-0.061-0.075-0.1-0.112l-1.717-1.657c1.424-0.323,2.957-1.516,2.957-2.74
		c0-1.426-1.979-1.932-3.668-1.932c-1.766,0-1.971,1.21-1.992,2.065l-4.43-4.271c-0.9-0.891-2.607-1.592-3.883-1.592H24.5h-0.002
		h-8.63c-1.275,0-2.981,0.701-3.882,1.592l-4.429,4.271c-0.023-0.855-0.228-2.065-1.992-2.065c-1.691,0-3.669,0.506-3.669,1.932
		c0,1.224,1.534,2.417,2.958,2.74l-1.717,1.657c-0.039,0.037-0.066,0.074-0.1,0.112C1.2,20.272,0,23.184,0,25.297v6.279
		c0,1.524,0.601,2.907,1.572,3.938v2.435c0,1.424,1.192,2.585,2.658,2.585h3.214c1.466,0,2.657-1.159,2.657-2.585v-0.623h14.397
		H24.5h14.396v0.623c0,1.426,1.19,2.585,2.658,2.585h3.213c1.467,0,2.657-1.161,2.657-2.585v-2.435
		c0.972-1.031,1.572-2.414,1.572-3.938v-6.279C48.998,23.184,47.798,20.272,45.961,18.702z M13.613,11.953
		c0.623-0.519,1.712-0.913,2.255-0.913h8.63H24.5h8.63c0.543,0,1.632,0.394,2.255,0.913l5.809,5.63H24.5h-0.002H7.805L13.613,11.953
		z M1.993,24.347c0-1.546,1.21-2.801,2.704-2.801c1.493,0,6.372,2.864,6.372,4.41s-4.879,1.188-6.372,1.188
		C3.203,27.144,1.993,25.894,1.993,24.347z M10.102,34.573H9.587H9.072l-3.055,0.005c-0.848-0.264-1.446-0.572-1.869-0.903
		c-0.214-0.167-0.378-0.341-0.506-0.514c-0.129-0.175-0.223-0.347-0.284-0.519c-0.38-1.074,0.405-2.061,0.405-2.061h5.214
		l3.476,3.99L10.102,34.573L10.102,34.573z M31.996,34.575H24.5h-0.002h-7.496c-1.563,0-2.832-1.269-2.832-2.831h10.328H24.5h10.328
		C34.828,33.308,33.559,34.575,31.996,34.575z M32.654,29.812H24.5h-0.002h-8.154c-1.7,0-3.08-2.096-3.08-4.681h11.234H24.5h11.234
		C35.734,27.717,34.354,29.812,32.654,29.812z M45.641,32.644c-0.062,0.172-0.156,0.344-0.285,0.518
		c-0.127,0.173-0.291,0.347-0.506,0.514c-0.422,0.331-1.021,0.641-1.869,0.903l-3.055-0.005h-0.515h-0.515h-2.353l3.478-3.99h5.213
		C45.234,30.583,46.02,31.568,45.641,32.644z M44.301,27.144c-1.492,0-6.371,0.356-6.371-1.188s4.879-4.41,6.371-4.41
		c1.494,0,2.704,1.255,2.704,2.801C47.005,25.892,45.795,27.144,44.301,27.144z"/>
</g>

</symbol><symbol id="icon-check" viewBox="0 0 512 512">
<g>
	<g>
		<path d="M504.502,75.496c-9.997-9.998-26.205-9.998-36.204,0L161.594,382.203L43.702,264.311c-9.997-9.998-26.205-9.997-36.204,0
			c-9.998,9.997-9.998,26.205,0,36.203l135.994,135.992c9.994,9.997,26.214,9.99,36.204,0L504.502,111.7
			C514.5,101.703,514.499,85.494,504.502,75.496z"/>
	</g>
</g>
<g>
</g>
<g>
</g>
<g>
</g>
<g>
</g>
<g>
</g>
<g>
</g>
<g>
</g>
<g>
</g>
<g>
</g>
<g>
</g>
<g>
</g>
<g>
</g>
<g>
</g>
<g>
</g>
<g>
</g>
</symbol><symbol id="icon-clock" viewBox="0 0 96 96"><path d="M48,4C23.7,4,4,23.7,4,48c0,24.301,19.7,44,44,44c24.301,0,44-19.699,44-44C92,23.7,72.301,4,48,4z M48,84  c-19.882,0-36-16.118-36-36s16.118-36,36-36s36,16.118,36,36S67.882,84,48,84z"/><path d="M52,46.343V24c0-2.209-1.791-4-4-4s-4,1.791-4,4v24c0,0.009,0.003,0.018,0.003,0.027c0.001,0.253,0.026,0.506,0.076,0.755  c0.024,0.123,0.069,0.234,0.104,0.354c0.039,0.132,0.069,0.266,0.122,0.395c0.058,0.138,0.136,0.264,0.208,0.394  c0.054,0.1,0.097,0.2,0.16,0.295c0.147,0.221,0.314,0.428,0.501,0.613l11.311,11.312c1.562,1.562,4.097,1.562,5.658,0  c1.562-1.562,1.562-4.097,0-5.656L52,46.343z"/></symbol><symbol id="icon-facebook" viewBox="0 0 10 19">
    <!-- Generator: Sketch 3.3.3 (12072) - http://www.bohemiancoding.com/sketch -->
    
    <g id="Page-1" stroke-width="1" fill-rule="evenodd" sketch:type="MSPage">
        <path d="M9.76616526,0.156928571 L9.76616526,3.10335714 L8.01393311,3.10335714 C7.37405216,3.10335714 6.94250454,3.23728571 6.71929026,3.50514286 C6.49607597,3.773 6.38446883,4.17478571 6.38446883,4.7105 L6.38446883,6.819875 L9.65455811,6.819875 L9.21929026,10.1234464 L6.38446883,10.1234464 L6.38446883,18.5944286 L2.96929026,18.5944286 L2.96929026,10.1234464 L0.123308113,10.1234464 L0.123308113,6.819875 L2.96929026,6.819875 L2.96929026,4.38683929 C2.96929026,3.00291071 3.35619502,1.92962202 4.13000454,1.16697321 C4.90381407,0.404324405 5.93432002,0.023 7.2215224,0.023 C8.3152724,0.023 9.16348668,0.0676428571 9.76616526,0.156928571 L9.76616526,0.156928571 Z" id="facebook" sketch:type="MSShapeGroup"/>
    </g>
</symbol><symbol id="icon-hatchback" viewBox="0 0 575 575">
<g id="surface1">
<path d="M 240 86.890625 L 278.398438 86.890625 L 278.398438 106.09375 L 240 106.09375 Z M 240 86.890625 " style=" stroke:none;fill-rule:nonzero;fill:#8d8d8d;fill-opacity:1;"/>
<path d="M 567.761719 58.1875 L 502.550781 48.875 C 490.660156 41.570312 478.320312 35.03125 465.597656 29.292969 C 423.582031 10.261719 377.980469 0.441406 331.851562 0.492188 L 320.523438 0.492188 C 266.085938 0.53125 212.519531 14.191406 164.707031 40.226562 L 131.796875 58.179688 C 93.273438 58.613281 55.492188 68.859375 22.023438 87.9375 C 8.421875 95.738281 0.0234375 110.210938 0 125.886719 L 0 182.890625 C 0 188.195312 4.296875 192.492188 9.601562 192.492188 L 41.835938 192.492188 C 52.320312 222.402344 85.066406 238.152344 114.976562 227.667969 C 131.441406 221.898438 144.382812 208.953125 150.152344 192.492188 L 406.636719 192.492188 C 417.121094 222.402344 449.867188 238.152344 479.777344 227.667969 C 496.238281 221.898438 509.183594 208.953125 514.953125 192.492188 L 518.398438 192.492188 C 519.621094 192.492188 520.832031 192.261719 521.96875 191.808594 L 553.0625 179.332031 C 566.953125 173.832031 576.050781 160.386719 576 145.453125 L 576 67.691406 C 576 62.917969 572.488281 58.867188 567.761719 58.1875 Z M 133.621094 180.972656 C 129.375 201.75 109.089844 215.152344 88.3125 210.90625 C 67.53125 206.660156 54.128906 186.375 58.375 165.59375 C 62.625 144.816406 82.910156 131.414062 103.6875 135.660156 C 121.566406 139.3125 134.402344 155.042969 134.398438 173.292969 C 134.398438 175.871094 134.136719 178.445312 133.621094 180.972656 Z M 307.199219 173.292969 L 153.597656 173.292969 C 153.597656 141.480469 127.8125 115.691406 96 115.691406 C 64.1875 115.691406 38.398438 141.480469 38.398438 173.292969 L 19.199219 173.292969 L 19.199219 125.886719 C 19.210938 117.09375 23.921875 108.972656 31.554688 104.605469 C 62.882812 86.71875 98.328125 77.304688 134.398438 77.292969 L 307.199219 77.292969 Z M 307.199219 58.09375 L 172.050781 58.09375 L 173.902344 57.082031 C 214.945312 34.777344 260.535156 22.132812 307.199219 20.113281 Z M 326.398438 19.691406 L 331.832031 19.691406 C 370.519531 19.648438 408.855469 26.992188 444.789062 41.332031 L 428.027344 58.09375 L 326.398438 58.09375 Z M 498.421875 180.972656 C 494.175781 201.75 473.890625 215.152344 453.109375 210.90625 C 432.332031 206.660156 418.929688 186.375 423.175781 165.59375 C 427.421875 144.816406 447.710938 131.414062 468.488281 135.660156 C 486.367188 139.3125 499.203125 155.042969 499.199219 173.292969 C 499.199219 175.871094 498.9375 178.445312 498.421875 180.972656 Z M 556.800781 86.890625 L 528 86.890625 L 528 106.09375 L 556.800781 106.09375 L 556.800781 145.453125 C 556.824219 152.527344 552.511719 158.894531 545.933594 161.492188 L 518.398438 172.550781 C 518.398438 171.667969 518.285156 170.792969 518.226562 169.910156 C 518.167969 169.027344 518.148438 167.992188 518.054688 167.03125 C 517.957031 166.070312 517.765625 165.109375 517.613281 164.152344 C 517.457031 163.191406 517.34375 162.230469 517.152344 161.359375 C 516.960938 160.484375 516.679688 159.515625 516.429688 158.601562 C 516.179688 157.691406 515.988281 156.769531 515.699219 155.875 C 515.414062 154.984375 515.066406 154.128906 514.742188 153.253906 C 514.414062 152.382812 514.117188 151.480469 513.78125 150.613281 C 513.445312 149.75 512.992188 148.964844 512.589844 148.148438 C 512.1875 147.332031 511.792969 146.4375 511.34375 145.613281 C 510.890625 144.789062 510.382812 144.085938 509.949219 143.320312 C 509.519531 142.550781 508.992188 141.675781 508.445312 140.890625 C 507.894531 140.101562 507.386719 139.480469 506.859375 138.769531 C 506.332031 138.058594 505.734375 137.222656 505.121094 136.484375 C 504.507812 135.746094 503.933594 135.167969 503.335938 134.5625 C 502.742188 133.960938 502.078125 133.144531 501.417969 132.472656 C 500.753906 131.800781 500.101562 131.269531 499.441406 130.675781 C 498.777344 130.082031 498.066406 129.378906 497.335938 128.753906 C 496.609375 128.132812 495.867188 127.652344 495.140625 127.105469 C 494.410156 126.558594 493.679688 125.972656 492.914062 125.460938 C 492.144531 124.953125 491.28125 124.503906 490.457031 123.964844 C 489.628906 123.425781 488.957031 123.003906 488.179688 122.59375 C 487.402344 122.179688 486.433594 121.746094 485.550781 121.324219 C 484.667969 120.902344 483.976562 120.527344 483.160156 120.183594 C 482.34375 119.835938 481.238281 119.472656 480.28125 119.128906 C 479.320312 118.78125 478.695312 118.511719 477.878906 118.253906 C 476.785156 117.917969 475.664062 117.675781 474.546875 117.398438 C 473.816406 117.226562 473.117188 116.996094 472.378906 116.84375 C 471.199219 116.601562 469.988281 116.46875 468.789062 116.292969 C 468.078125 116.199219 467.398438 116.042969 466.6875 115.976562 C 464.765625 115.785156 462.847656 115.679688 460.832031 115.679688 C 429.03125 115.710938 403.261719 141.480469 403.230469 173.28125 L 326.402344 173.28125 L 326.402344 77.289062 L 432 77.289062 C 434.546875 77.289062 436.988281 76.277344 438.785156 74.476562 L 463.679688 49.582031 C 474.128906 54.554688 484.289062 60.113281 494.113281 66.230469 C 495.246094 66.9375 496.511719 67.402344 497.835938 67.59375 L 556.800781 76.011719 Z M 556.800781 86.890625 " style=" stroke:none;fill-rule:nonzero;fill:#8d8d8d;fill-opacity:1;"/>
</g>
</symbol><symbol id="icon-kyivstar" viewBox="0 0 72 70">
<g stroke-width="8" stroke-linecap="round">
<path d="M36,9 V23.5"/>
<path d="M36,9 V23.5" transform="rotate(72 36 37)"/>
<path d="M36,9 V23.5" transform="rotate(144 36 37)"/>
<path d="M36,9 V23.5" transform="rotate(216 36 37)"/>
<path d="M36,9 V23.5" transform="rotate(288 36 37)"/></g>
</symbol><symbol id="icon-list" viewBox="0 0 768 1024"><path d="M0 576h128v-128h-128v128z m0-256h128v-128h-128v128z m0 512h128v-128h-128v128z m256-256h512v-128h-512v128z m0-256h512v-128h-512v128z m0 512h512v-128h-512v128z"/></symbol><symbol id="icon-location" viewBox="0 0 640 1024"><path d="M320 0C143.219 0 0 143.21900000000005 0 320s320 704 320 704 320-527.219 320-704S496.75 0 320 0zM320 448c-70.656 0-128-57.344-128-128s57.344-128 128-128c70.625 0 128 57.344 128 128S390.625 448 320 448z"/></symbol><symbol id="icon-logo" viewBox="0 0 595275 595275">
<g>
	<path d="M426.653,377.946c-0.073-0.303-0.258-0.498-0.557-0.586c-0.441-0.521-0.882-1.041-1.322-1.562
		c-0.525-0.521-0.832-1.25-1.534-1.6c-0.908-1.336-2.043-2.473-3.164-3.621c-0.586-0.639-1.171-1.277-1.757-1.916l0,0
		c-0.271-0.684-0.913-1.022-1.401-1.503c-0.291-0.775-0.846-1.325-1.521-1.771c0,0,0,0,0,0.001c0-0.001,0-0.001,0-0.001
		c-0.111-0.106-0.234-0.205-0.334-0.321c-4.125-4.823-8.342-9.563-12.688-14.189c-0.663-0.706-0.5-1.343,0.055-2.022
		c0.846-1.036,1.845-1.952,2.511-3.133c0.095,0.013,0.161-0.025,0.199-0.112c2.914-3.383,5.827-6.766,8.741-10.148
		c0.832-0.858,1.785-1.622,2.229-2.792c0.001,0,0.002,0,0.002-0.001s0-0.002,0-0.004c0,0.002,0.001,0.003,0.002,0.005
		c0.367-0.065,0.547-0.331,0.686-0.641l0,0c3.262-3.72,6.524-7.438,9.78-11.163c0.266-0.304,0.605-0.646,0.384-1.093
		c-0.193-0.389-0.629-0.294-0.979-0.292c-3.107,0.014-6.216,0.038-9.323,0.059l0,0l0,0c-0.715-0.027-1.445,0.03-2.141-0.101
		c-1.24-0.234-2.084,0.169-2.593,1.31c-0.835,0.729-1.513,1.592-2.113,2.518l-0.002,0.004c-0.523,0.617-1.047,1.235-1.57,1.853l0,0
		l-0.007-0.014l0,0c-0.581,0.58-1.262,1.075-1.6,1.864l0,0c-0.563,0.894-1.571,1.433-1.953,2.468v0.001
		c-0.372,0.412-0.744,0.825-1.115,1.237l0,0c-3.135,3.424-6.085,7.003-9.021,10.595c-0.333,0.418-0.666,0.837-0.999,1.255l0,0
		c-1.188,1.388-2.381,2.772-3.561,4.167c-0.272,0.321-0.579,0.716-0.989,0.628c-0.546-0.118-0.308-0.68-0.338-1.054
		c-0.049-0.612-0.034-1.229-0.046-1.845l0,0c-0.002-7.881-0.003-15.762-0.005-23.644c0.282-1.266-0.651-1.465-1.463-1.404
		c-2.797,0.208-5.595,0.136-8.384,0.054c-1.585-0.046-1.994,0.414-1.988,1.987c0.058,16.021,0.033,32.044,0.038,48.065
		c0,2.229,0.033,4.456,0.052,6.685c0,0.208,0.001,0.416,0.001,0.624c-0.132,2.496-0.132,2.495,2.3,2.491c1.97-0.002,3.94,0,5.91,0
		c3.722,0,3.722,0,3.534-3.74c0.001-3.316,0.002-6.634,0.003-9.95l0,0c0.003-1.574-0.111-3.183,1.287-4.343
		c0.508-0.111,0.65-0.603,0.957-0.923l0,0c0.391-0.048,0.62-0.234,0.563-0.663c0.214-0.278,0.392-0.598,0.65-0.827
		c1.522-1.35,1.526-1.341,2.875,0.188c2.854,3.236,5.713,6.47,8.569,9.704c0.333,0.414,0.665,0.827,0.998,1.24
		c0.808,0.937,1.616,1.873,2.424,2.81h0.001c0.408,0.936,1.285,1.468,1.905,2.221l0,0c0.979,1.184,1.964,2.364,2.937,3.554
		c0.382,0.468,0.845,0.732,1.461,0.731c4.331-0.001,8.661,0.002,12.992,0.008c0.375,0.001,0.782-0.016,0.945-0.381
		C427.387,378.436,427.034,378.159,426.653,377.946z M400.412,335.769c0.021-0.019,0.041-0.039,0.063-0.059
		c0,0.002-0.001,0.003-0.001,0.004C400.452,335.731,400.434,335.751,400.412,335.769C400.412,335.77,400.412,335.77,400.412,335.769
		z M400.474,335.717c0,0,0-0.001,0-0.002c0.002-0.001,0.004-0.002,0.006-0.002C400.478,335.714,400.476,335.716,400.474,335.717z"/>
	<path d="M478.781,348.13c-2.099-1.085-4.273-1.96-6.607-2.396c-2.759-0.814-5.521-1.623-8.388-1.983l0,0l0,0
		c-2.083-0.6-4.167-1.198-6.25-1.797c-0.47-0.208-0.934-0.427-1.408-0.621c-4.524-1.856-5.754-5.505-3.22-9.566
		c1.404-1.322,3.034-2.15,4.91-2.683c2.811-0.798,5.607-0.456,8.421-0.29l0,0l0,0c1.034,0.235,2.068,0.471,3.103,0.706
		c1.35,0.427,2.698,0.854,4.048,1.28l0,0c2.064,1.219,4.291,2.152,6.255,3.551c0.331,0.236,0.654,0.183,0.928-0.185
		c1.153-1.549,2.326-3.084,3.492-4.624c0.859-0.708,1.525-1.571,2.048-2.549l0,0l0,0c0.174-0.307,0.227-0.609-0.031-0.9
		c-0.725-0.627-1.55-1.093-2.409-1.506v0.001c-1.703-1.179-3.558-2.028-5.496-2.772c-8.946-3.439-17.993-4.164-27.124-0.934
		c-2.763,0.979-5.313,2.508-7.221,4.871l0,0c-5.893,5.346-5.927,17.231,0.871,21.857c0,0,0.01,0.004,0.011,0.004l0,0
		c3.161,2.734,7.003,3.948,10.959,4.904c0.159,0.02,0.317,0.04,0.476,0.06c2.416,1.09,5.055,1.271,7.593,1.863l0,0l0,0l0,0l0,0
		c2.402,0.854,4.947,1.231,7.315,2.211c3.935,1.627,5.813,3.272,5.22,7.726c-0.061,0.288-0.121,0.576-0.183,0.864
		c-0.556,0.461-0.716,1.186-1.229,1.715c-1.724,1.772-3.877,2.541-6.218,2.964c-0.087-0.039-0.157-0.02-0.212,0.059
		c-2.389,0.347-4.78,0.183-7.172,0.058c-0.49-0.035-0.979-0.07-1.47-0.105l0,0l0,0c-3.206-0.776-6.319-1.826-9.339-3.156
		c-0.038,0.03-0.058,0.068-0.083,0.105c-0.001-0.003-0.003-0.005-0.004-0.007l0.087-0.099c-0.663-0.53-1.401-0.929-2.193-1.23
		c-0.725-0.776-1.717-1.157-2.574-1.736l0,0l0,0c-0.028-0.088-0.089-0.125-0.18-0.112c-0.824-1.003-1.505-1.298-2.549-0.064
		c-1.75,2.069-3.701,3.971-5.601,5.911c-0.416,0.426-0.529,0.729-0.022,1.118c3.474,2.672,7.128,5.012,11.406,6.204
		c0-0.001,0.001-0.001,0.001-0.001s0,0-0.001,0.001c0.001,0,0.011,0,0.012,0.001l0,0c0.586,0.693,1.516,0.561,2.237,0.929
		c0.358,0.297,0.787,0.291,1.217,0.279c0.584,0.365,1.229,0.515,1.91,0.539c0.186,0.031,0.371,0.063,0.557,0.094
		c8.287,1.858,16.442,1.903,24.292-1.861c3.333-1.599,6.071-3.926,7.743-7.257C490.548,361.915,488.758,352.114,478.781,348.13z
		 M465.631,328.247c0,0.001-0.001,0.002-0.001,0.003c-0.001-0.001-0.002-0.002-0.002-0.003
		C465.629,328.247,465.63,328.247,465.631,328.247z"/>
	<path d="M216.622,370.55c0.03-2.028-0.091-2.201-2.149-2.2c-10.205,0.004-20.41,0.011-30.614,0.018
		c-2.207,0.002-2.207,0.003-2.331-2.155c0.013-0.051,0.037-0.101,0.037-0.151c0.012-15.09,0.016-30.18,0.047-45.27
		c0.002-1.041-0.422-1.345-1.398-1.328c-2.541,0.044-5.085,0.092-7.622-0.012c-1.324-0.055-1.659,0.396-1.657,1.662
		c0.031,17.893,0.018,35.784,0.018,53.677c0,0.153,0.041,0.307,0.062,0.46c-0.017,0.62-0.044,1.24-0.05,1.86
		c-0.021,2.175-0.019,2.177,2.213,2.177c13.831,0,27.662,0,41.493-0.002c1.804,0,2.02-0.24,1.996-2.057
		C216.635,375.003,216.589,372.775,216.622,370.55z"/>
	<path d="M292.669,375.546L292.669,375.546c0.029-0.565,0.084-1.132,0.084-1.697
		c0.005-17.123,0.004-34.245,0.001-51.368c0-0.567-0.041-1.135-0.063-1.701c0.26-1.15-0.428-1.307-1.326-1.302
		c-2.585,0.014-5.172,0.051-7.756-0.013c-1.068-0.026-1.79,0.324-2.239,1.272h0c-0.826,0.931-1.653,1.86-2.479,2.791
		c-2.361,2.593-4.722,5.187-7.083,7.78c-0.727,0.839-1.757,1.42-2.153,2.54c-0.909,0.65-1.508,1.585-2.214,2.42l0,0
		c-0.408,0.437-0.816,0.873-1.224,1.309c-1.039,1.131-2.078,2.261-3.116,3.391c-1.564,0.624-1.798-1.122-2.769-1.556
		c-0.32-0.401-0.639-0.803-0.959-1.204c-0.697-0.744-1.271-1.613-2.178-2.146l0,0h0c-0.728-0.932-1.451-1.869-2.456-2.532
		c-0.577-1.17-1.583-1.96-2.501-2.827l0,0l0,0c-3.334-3.575-6.672-7.148-9.999-10.731c-0.349-0.376-0.75-0.502-1.241-0.495
		c-2.066,0.031-4.132,0.051-6.198,0.074c-0.256-0.033-0.512-0.07-0.768-0.102c-2.409-0.289-2.669-0.06-2.669,2.351
		c0,15.963,0,31.925,0,47.888c0,12.438,0.022,24.876-0.024,37.314c-0.005,1.383,0.293,1.953,1.799,1.875
		c2.43-0.125,4.875-0.122,7.304-0.003c1.537,0.075,1.914-0.479,1.911-1.947c-0.045-18.347-0.032-36.692-0.038-55.039
		c-0.001-2.072-0.035-4.144-0.053-6.216c0.288-1.987-0.265-4.049,0.473-6.172c0.711,0.652,1.331,1.179,1.904,1.752
		c3.15,3.154,6.289,6.319,9.431,9.479c0.189,0.19,0.379,0.38,0.569,0.57l0,0c0.251,0.608,0.791,0.938,1.275,1.321
		c0.51,0.691,1.097,1.308,1.792,1.816l0,0c0.353,0.396,0.706,0.793,1.058,1.189c0.425,0.494,0.849,0.989,1.275,1.481
		c1.004,1.161,3.022,1.365,4.384,0.504c0.076-0.028,0.149-0.069,0.219-0.132l0.017-0.016c0.771-0.401,1.254-1.076,1.696-1.789l0,0
		c0.59-0.613,1.181-1.227,1.771-1.84c0.41-0.436,0.819-0.87,1.229-1.305c0.411-0.42,0.822-0.839,1.233-1.258
		c0.313-0.308,0.626-0.615,0.939-0.922l0,0c0.823-0.949,1.986-1.591,2.523-2.797c1.194-0.99,2.313-2.048,3.083-3.42
		c0.191-0.135,0.383-0.27,0.574-0.404c0.73-0.423,1.201-1.098,1.693-1.751h0c0.531-0.242,0.814-0.751,1.224-1.12
		c0.308-0.276,0.7-0.936,1.209-0.17c-0.002,0.623-0.004,1.247-0.006,1.871c-0.015,11.844-0.023,23.687-0.058,35.53
		c-0.003,0.997,0.454,1.218,1.333,1.201c2.068-0.037,4.138-0.018,6.206-0.007C292.956,379.307,292.956,379.312,292.669,375.546
		L292.669,375.546z M267.459,337.581c0.004,0,0.009,0,0.014,0v0.001l0,0v-0.001l0,0c0,0,0.001,0,0.001,0.001c0,0,0,0-0.001,0
		c0.001,0.005,0.001,0.01,0.002,0.015C267.471,337.592,267.465,337.586,267.459,337.581z M273.149,347.662
		c0.004,0.004,0.009,0.007,0.014,0.011c0.011,0.025,0.017,0.049,0.02,0.071C273.175,347.718,273.163,347.69,273.149,347.662z"/>
	<path d="M358.27,339.07c-0.01-3.176-0.616-6.258-2.29-9.039c-0.002,0.001-0.004,0.002-0.006,0.004
		c0.002-0.003,0.004-0.004,0.005-0.007c-0.688-1.576-1.709-2.93-2.88-4.168c-3.313-3.49-7.465-5.416-12.121-6.31
		c-3.149-0.599-6.327-0.704-9.5-0.079c-0.001,0-0.003,0-0.005,0c-0.373,0.034-0.746,0.069-1.119,0.104
		c0.002,0.002,0.005,0.003,0.007,0.005c-0.001-0.001-0.003-0.001-0.005-0.003c-1.67,0.028-3.18,0.622-4.672,1.277
		c0,0.002-0.001,0.004-0.002,0.006c0-0.002,0-0.004-0.001-0.007c-0.954,0.126-1.773,0.541-2.495,1.164c0.001,0,0.003,0,0.005,0
		c-0.001,0.001-0.003,0.001-0.005,0.002c-3.751,1.771-6.404,4.606-8.107,8.357c0,0.001,0,0.003,0,0.004
		c-0.293,0.386-0.689,0.723-0.595,1.287c0.001,0,0.002,0,0.003,0c-0.001,0.001-0.001,0.002-0.002,0.002
		c-0.755,1.771-1.216,3.618-1.249,5.539c-0.066,4.146-0.083,8.291-0.089,12.437c-0.006,9.273,0.028,18.552-0.017,27.825
		c-0.006,1.427,0.433,1.903,1.876,1.843c2.586-0.105,5.178-0.012,7.77-0.045c0.488-0.005,1.21,0.345,1.376-0.555
		c0.001-0.003,0.001-0.006,0.001-0.01c0.412-1.093,0.2-2.243,0.218-3.354c0.067-4.108,0.277-8.224-0.206-12.323
		c0-0.012-0.001-0.023-0.002-0.035c0.006-0.854,0.804-0.777,1.276-1.076l0,0l0,0c0,0,0-0.001,0.001-0.001
		c0.394-0.005,0.787-0.011,1.176-0.021c0.001-0.001,0.002-0.001,0.003-0.002c0,0.001-0.001,0.002-0.001,0.003
		c0.243,0.076,0.486,0.219,0.729,0.22c5.115,0.013,10.229,0.011,15.345,0.01c0.462,0,0.938,0.066,1.351-0.23l0,0l0,0
		c1.026,0.117,2.053,0.234,3.079,0.351l0,0c0.016,4.433,0.031,8.866,0.047,13.299c0,0.001-0.002,0.001-0.002,0.002
		c-0.022,0.877-0.045,1.754-0.072,2.625c-0.028,0.854,0.35,1.16,1.221,1.144c3.041-0.062,6.076-0.056,9.117-0.078
		c0,0.001-0.001,0.002-0.001,0.003c0.9-0.075,0.838-0.737,0.838-1.368C358.274,364.938,358.308,352.004,358.27,339.07z
		 M347.099,350.578c-7.27,0.339-14.545,0.056-21.82,0.161c-0.711,0.012-0.866-0.327-0.844-0.949
		c0.145-4.483-0.294-8.974,0.283-13.446c0.555-0.927,1.104-1.854,1.659-2.774l0.949-0.933c3.102-2.458,6.754-2.697,10.488-2.559
		c0.194,0.017,0.389,0.033,0.583,0.056c1.771,0.693,3.612,1.221,5.122,2.464c2.553,2.104,3.457,4.934,3.641,8.097
		C347.138,343.985,347.121,347.282,347.099,350.578z"/>
	<path d="M154.412,339.368c-0.194-1.299-0.649-2.508-1.26-3.662c-0.627-1.71-1.443-3.286-2.403-4.773
		c-0.965-1.487-2.076-2.891-3.291-4.251c-2.825-3.151-6.188-5.267-10.15-6.554h-0.006c-1.493-0.732-3.096-1.032-4.733-1.177
		c-0.305-0.021-0.61-0.05-0.916-0.072c-1.099-0.255-2.192-0.377-3.291-0.377c-1.127,0-2.248,0.128-3.375,0.344
		c-1.665-0.094-3.257,0.277-4.839,0.732h-0.006c-2.092,0.539-4.129,1.188-5.927,2.437h-0.006c-0.993,0.405-1.964,0.827-2.542,1.815
		c-0.81,0.311-1.476,0.782-2.064,1.348c-0.583,0.561-1.088,1.216-1.593,1.876c-0.649,0.311-1.11,0.777-1.293,1.493
		c-0.683,0.61-1.271,1.287-1.587,2.17c-0.228,0.072-0.294,0.244-0.294,0.443v0.072c-0.405,0.389-0.749,0.811-0.894,1.365
		c-0.005,0-0.005,0-0.005,0c-0.488,0.788-1.032,1.549-1.238,2.48c-0.488,0.649-0.827,1.36-0.882,2.187c0,0.006,0,0.006,0,0.006
		c-1.148,2.681-1.631,5.511-1.865,8.396v0.006c-0.133,1.659-0.233,3.308-0.044,4.973v0.005c0.067,8.158,2.703,15.306,8.347,21.283
		c0.661,1.004,1.576,1.726,2.575,2.358c0.466,0.61,1.01,1.11,1.787,1.282c2.003,1.465,4.135,2.514,6.382,3.207
		c2.248,0.699,4.606,1.044,7.059,1.1c1.659,0.149,3.318,0.116,4.978-0.045c1.948-0.066,3.834-0.449,5.661-1.148
		c0.555-0.028,1.071-0.178,1.515-0.533c0.389-0.139,0.783-0.261,1.166-0.416c4.19-1.754,7.453-4.634,10.123-8.258
		c3.174-4.312,5.255-9.052,5.833-14.412v-0.006c0.544-1.01,0.322-2.125,0.417-3.186
		C156.148,347.626,155.771,343.437,154.412,339.368z M144.982,353.647c-0.355,0.832-0.477,1.709-0.588,2.598
		c-0.76,2.158-1.704,4.229-2.825,6.221c-0.655,0.815-1.31,1.637-1.959,2.453c-0.266,0.244-0.527,0.488-0.788,0.727
		c-0.522,0.306-1.021,0.639-1.382,1.144c-0.267,0.217-0.539,0.433-0.811,0.654c-1.681,0.616-3.363,1.238-5.039,1.859
		c-3.208,0.261-6.387,0.399-9.495-0.743c-5.516-2.031-8.613-6.222-10.3-11.599c-1.57-5.018-1.559-10.111,0.017-15.112
		c2.614-8.291,8.891-13.219,17.765-12.48c3.229,0.267,5.949,1.531,8.552,3.258c0.938,0.96,1.87,1.92,2.808,2.886
		c0.66,1.099,1.321,2.203,1.981,3.308c0.389,0.954,0.771,1.903,1.16,2.853c-0.033,0.1-0.017,0.183,0.05,0.266
		c0.206,0.722,0.411,1.449,0.61,2.176c0.011,0.205,0.022,0.416,0.028,0.622c-0.017,0.332-0.211,0.71,0.206,0.948
		c0.017,0.095,0.033,0.188,0.044,0.283c0.011,0.083,0.017,0.167,0.022,0.25c0,0.011,0.006,0.022,0.006,0.033
		c0.005,0.089,0.005,0.172,0.011,0.261v0.033c0.006,0.072,0.006,0.145,0.011,0.217c0.011,0.443,0.028,0.888,0.172,1.32
		c0.017,0.062,0.039,0.122,0.067,0.184c0.005,0.799,0.005,1.593,0.011,2.386C145.049,351.633,145,352.638,144.982,353.647z"/>
	<path d="M110.452,375.572c0.066-0.071,0.126-0.127,0.181-0.17l0,0C110.602,375.541,110.571,375.651,110.452,375.572
		z"/>
</g>
<path d="M308.128,209.895c-1.5,0-3.003-0.553-4.178-1.667c-2.432-2.308-2.533-6.15-0.226-8.582
	c11.21-11.814,25.865-18.32,41.268-18.32c16.019,0,31.922,6.827,41.504,17.816c2.204,2.527,1.942,6.362-0.585,8.565
	c-2.528,2.203-6.362,1.941-8.564-0.585c-7.346-8.423-19.742-13.655-32.354-13.655c-16.243,0-27.309,9.107-32.459,14.535
	C311.339,209.26,309.734,209.895,308.128,209.895z"/>
<path d="M393.059,241.864h-40.724c-3.354,0-6.071-2.718-6.071-6.071s2.718-6.071,6.071-6.071h40.724
	c3.354,0,6.07,2.718,6.07,6.071S396.412,241.864,393.059,241.864z"/>
<path opacity="0.8" d="M393.059,241.864h-40.724c-3.354,0-6.071-2.718-6.071-6.071s2.718-6.071,6.071-6.071h40.724
	c3.354,0,6.07,2.718,6.07,6.071S396.412,241.864,393.059,241.864z"/>
<path d="M394.009,246.63c-3.187-1.044-6.614,0.696-7.657,3.882c-5.863,17.924-22.485,29.967-41.359,29.967
	c-23.989,0-43.506-19.517-43.506-43.506c0-30.684-24.964-55.647-55.647-55.647c-30.685,0-55.647,24.963-55.647,55.647
	c0,30.685,24.963,55.647,55.647,55.647c12.655,0,24.582-4.141,34.489-11.974l5.484-4.716c2.541-2.188,2.827-6.021,0.639-8.562
	c-2.189-2.54-6.022-2.826-8.561-0.639l-5.189,4.468c-7.722,6.072-17.008,9.281-26.862,9.281c-23.99,0-43.506-19.517-43.506-43.506
	c0-23.989,19.517-43.506,43.506-43.506c23.989,0,43.506,19.517,43.506,43.506c0,30.685,24.964,55.647,55.647,55.647
	c24.14,0,45.398-15.405,52.899-38.333C398.934,251.101,397.196,247.673,394.009,246.63z"/>
</symbol><symbol id="icon-map" viewBox="0 0 512 512"><path d="m512 402.4375-74.589844-74.589844c3.84375-10.941406 5.851563-22.570312 5.851563-34.507812 0-20.785156-6.066407-40.632813-17.355469-57.53125v-201.792969l-146.96875-30.867187-131.96875 27.714843-146.96875-30.863281v327.363281l146.96875 30.863281 98.417969-20.667968c5.050781 10.714844 11.96875 20.589844 20.59375 29.210937 20.242187 20.246094 46.835937 30.371094 73.429687 30.371094 11.667969 0 23.332032-1.949219 34.464844-5.847656l74.632812 74.636719zm-482.003906-266.574219 101.972656 21.414063v68.234375l-101.972656-21.410157zm365.910156 70.335938c-29.796875-19.328125-67.40625-21.828125-99.230469-7.503907v-62.253906l99.230469 20.835938zm-129.226562-101.5625-104.714844 21.992187v-68.261718l104.714844-21.992188zm-104.714844 52.640625 104.714844-21.988282v68.234376l-104.714844 21.988281zm233.941406-30.648438-99.230469-20.839844v-68.261718l99.230469 20.839844zm-263.9375-68.261718v68.261718l-101.972656-21.414062v-68.265625zm-101.972656 176.382812 101.972656 21.414062v68.261719l-101.972656-21.414062zm131.96875 89.675781v-68.261719l90.003906-18.902343c-10.679688 16.578125-16.40625 35.886719-16.40625 56.078125 0 5.199218.378906 10.339844 1.125 15.394531zm125.226562 21.136719c-13.949218-13.949219-21.632812-32.496094-21.632812-52.222656 0-19.726563 7.683594-38.273438 21.632812-52.222656 14.394532-14.394532 33.308594-21.59375 52.222656-21.59375 18.910157 0 37.820313 7.199218 52.21875 21.59375 13.949219 13.949218 21.632813 32.496093 21.632813 52.222656 0 19.726562-7.683594 38.273437-21.632813 52.222656-28.796874 28.792969-75.648437 28.792969-104.441406 0zm125.652344 21.210938c3.558594-3.558594 6.820312-7.332032 9.785156-11.285157l46.949219 46.949219-21.066406 21.070312-46.960938-46.960937c3.9375-2.945313 7.714844-6.199219 11.292969-9.773437zm0 0"/></symbol><symbol id="icon-plug" viewBox="0 0 490 490">
<g>
	<g>
		<path d="M473.15,376.625c22.6-22.6,22.6-59.3,0-81.8c-22.6-22.6-59.3-22.6-81.8,0l-30.7,30.7c-8.5,8.5-22.4,8.5-30.9,0l-54.8-54.9
			c-3.4-3.4-8-5.3-12.7-5.3c-4.8,0-9.4,1.9-12.7,5.3c-15,15-34.9,23.3-56.2,23.3c-21.3,0-41.2-8.3-56.2-23.3l-49.6-49.6l112.3-112.3
			l49.6,49.6c13.8,13.8,22,32.1,23.1,51.5c0.6,9.6,8.5,17,18,17c0.3,0,0.7,0,1.1,0c9.9-0.6,17.5-9.1,16.9-19
			c-1.6-28.3-13.6-54.9-33.6-74.9l-49.6-49.6l5.5-5.5c7-7,7-18.4,0-25.5c-7-7-18.4-7-25.5,0l-35.3,35.3l-61.2-61.2
			c-7-7-18.4-7-25.5,0c-7,7-7,18.4,0,25.5l61.2,61.2l-52.6,52.6l-61.2-61.2c-7-7-18.4-7-25.5,0c-7,7-7,18.4,0,25.5l61.3,61.2
			l-35.3,35.3c-7,7-7,18.4,0,25.5c3.5,3.5,8.1,5.3,12.7,5.3c4.6,0,9.2-1.8,12.7-5.3l5.5-5.5l49.6,49.6
			c21.8,21.8,50.8,33.8,81.6,33.8c24.7,0,48.3-7.7,67.9-22.1l43.1,43.1c11.3,11.3,26.1,16.9,40.9,16.9s29.6-5.6,40.9-16.9l30.7-30.7
			c8.5-8.5,22.4-8.5,30.9,0s8.5,22.4,0,30.9l-30.7,30.7c-10.9,10.9-16.9,25.4-16.9,40.9s6,30,16.9,40.9c3.5,3.5,8.1,5.3,12.7,5.3
			c4.6,0,9.2-1.8,12.7-5.3c7-7,7-18.4,0-25.5c-4.1-4.1-6.4-9.6-6.4-15.4s2.3-11.3,6.4-15.4L473.15,376.625z"/>
	</g>
</g>
<g>
</g>
<g>
</g>
<g>
</g>
<g>
</g>
<g>
</g>
<g>
</g>
<g>
</g>
<g>
</g>
<g>
</g>
<g>
</g>
<g>
</g>
<g>
</g>
<g>
</g>
<g>
</g>
<g>
</g>
</symbol><symbol id="icon-road" viewBox="0 0 480 480"><path d="m478.6875 467.609375-168-256c-1.476562-2.253906-3.992188-3.609375-6.6875-3.609375h-128c-2.691406 0-5.207031 1.355469-6.6875 3.609375l-168 256c-1.613281 2.457031-1.75 5.605469-.351562 8.191406 1.394531 2.589844 4.101562 4.199219 7.039062 4.199219h464c2.941406 0 5.644531-1.609375 7.042969-4.199219 1.398437-2.585937 1.261719-5.734375-.355469-8.191406zm-298.367188-243.609375h7.738282l-125.65625 240h-39.578125zm67.679688 240v-32h-16v32h-151.503906l125.601562-240h25.902344v8h16v-8h25.882812l125.597657 240zm169.601562 0-125.601562-240h7.738281l157.4375 240zm0 0"/><path d="m232 240h16v16h-16zm0 0"/><path d="m232 272h16v24h-16zm0 0"/><path d="m232 312h16v32h-16zm0 0"/><path d="m232 368h16v40h-16zm0 0"/><path d="m240 192c2.375.003906 4.625-1.050781 6.144531-2.871094 6.738281-8.070312 65.855469-79.960937 65.855469-117.128906 0-39.761719-32.234375-72-72-72-39.761719 0-72 32.238281-72 72 0 37.167969 59.121094 109.058594 65.855469 117.128906 1.523437 1.820313 3.773437 2.875 6.144531 2.871094zm0-176c30.914062.042969 55.960938 25.089844 56 56 0 23.847656-36.09375 74.242188-56 99.3125-19.910156-25.0625-56-75.4375-56-99.3125.042969-30.910156 25.089844-55.957031 56-56zm0 0"/><path d="m272 64c0-17.671875-14.324219-32-32-32-17.671875 0-32 14.328125-32 32 0 17.675781 14.328125 32 32 32 17.675781 0 32-14.324219 32-32zm-48 0c0-8.835938 7.164062-16 16-16 8.839844 0 16 7.164062 16 16 0 8.839844-7.160156 16-16 16-8.835938 0-16-7.160156-16-16zm0 0"/></symbol><symbol id="icon-search" viewBox="0 0 973125 1024"><path d="M960 832L710.875 582.875C746.438 524.812 768 457.156 768 384 768 171.96900000000005 596 0 384 0 171.969 0 0 171.96900000000005 0 384c0 212 171.969 384 384 384 73.156 0 140.812-21.562 198.875-57L832 960c17.5 17.5 46.5 17.375 64 0l64-64C977.5 878.5 977.5 849.5 960 832zM384 640c-141.375 0-256-114.625-256-256s114.625-256 256-256 256 114.625 256 256S525.375 640 384 640z"/></symbol><symbol id="icon-settings" viewBox="0 0 479 479">
<g>
	<g>
		<path d="M454.2,189.101l-33.6-5.7c-3.5-11.3-8-22.2-13.5-32.6l19.8-27.7c8.4-11.8,7.1-27.9-3.2-38.1l-29.8-29.8
			c-5.6-5.6-13-8.7-20.9-8.7c-6.2,0-12.1,1.9-17.1,5.5l-27.8,19.8c-10.8-5.7-22.1-10.4-33.8-13.9l-5.6-33.2
			c-2.4-14.3-14.7-24.7-29.2-24.7h-42.1c-14.5,0-26.8,10.4-29.2,24.7l-5.8,34c-11.2,3.5-22.1,8.1-32.5,13.7l-27.5-19.8
			c-5-3.6-11-5.5-17.2-5.5c-7.9,0-15.4,3.1-20.9,8.7l-29.9,29.8c-10.2,10.2-11.6,26.3-3.2,38.1l20,28.1
			c-5.5,10.5-9.9,21.4-13.3,32.7l-33.2,5.6c-14.3,2.4-24.7,14.7-24.7,29.2v42.1c0,14.5,10.4,26.8,24.7,29.2l34,5.8
			c3.5,11.2,8.1,22.1,13.7,32.5l-19.7,27.4c-8.4,11.8-7.1,27.9,3.2,38.1l29.8,29.8c5.6,5.6,13,8.7,20.9,8.7c6.2,0,12.1-1.9,17.1-5.5
			l28.1-20c10.1,5.3,20.7,9.6,31.6,13l5.6,33.6c2.4,14.3,14.7,24.7,29.2,24.7h42.2c14.5,0,26.8-10.4,29.2-24.7l5.7-33.6
			c11.3-3.5,22.2-8,32.6-13.5l27.7,19.8c5,3.6,11,5.5,17.2,5.5l0,0c7.9,0,15.3-3.1,20.9-8.7l29.8-29.8c10.2-10.2,11.6-26.3,3.2-38.1
			l-19.8-27.8c5.5-10.5,10.1-21.4,13.5-32.6l33.6-5.6c14.3-2.4,24.7-14.7,24.7-29.2v-42.1
			C478.9,203.801,468.5,191.501,454.2,189.101z M451.9,260.401c0,1.3-0.9,2.4-2.2,2.6l-42,7c-5.3,0.9-9.5,4.8-10.8,9.9
			c-3.8,14.7-9.6,28.8-17.4,41.9c-2.7,4.6-2.5,10.3,0.6,14.7l24.7,34.8c0.7,1,0.6,2.5-0.3,3.4l-29.8,29.8c-0.7,0.7-1.4,0.8-1.9,0.8
			c-0.6,0-1.1-0.2-1.5-0.5l-34.7-24.7c-4.3-3.1-10.1-3.3-14.7-0.6c-13.1,7.8-27.2,13.6-41.9,17.4c-5.2,1.3-9.1,5.6-9.9,10.8l-7.1,42
			c-0.2,1.3-1.3,2.2-2.6,2.2h-42.1c-1.3,0-2.4-0.9-2.6-2.2l-7-42c-0.9-5.3-4.8-9.5-9.9-10.8c-14.3-3.7-28.1-9.4-41-16.8
			c-2.1-1.2-4.5-1.8-6.8-1.8c-2.7,0-5.5,0.8-7.8,2.5l-35,24.9c-0.5,0.3-1,0.5-1.5,0.5c-0.4,0-1.2-0.1-1.9-0.8l-29.8-29.8
			c-0.9-0.9-1-2.3-0.3-3.4l24.6-34.5c3.1-4.4,3.3-10.2,0.6-14.8c-7.8-13-13.8-27.1-17.6-41.8c-1.4-5.1-5.6-9-10.8-9.9l-42.3-7.2
			c-1.3-0.2-2.2-1.3-2.2-2.6v-42.1c0-1.3,0.9-2.4,2.2-2.6l41.7-7c5.3-0.9,9.6-4.8,10.9-10c3.7-14.7,9.4-28.9,17.1-42
			c2.7-4.6,2.4-10.3-0.7-14.6l-24.9-35c-0.7-1-0.6-2.5,0.3-3.4l29.8-29.8c0.7-0.7,1.4-0.8,1.9-0.8c0.6,0,1.1,0.2,1.5,0.5l34.5,24.6
			c4.4,3.1,10.2,3.3,14.8,0.6c13-7.8,27.1-13.8,41.8-17.6c5.1-1.4,9-5.6,9.9-10.8l7.2-42.3c0.2-1.3,1.3-2.2,2.6-2.2h42.1
			c1.3,0,2.4,0.9,2.6,2.2l7,41.7c0.9,5.3,4.8,9.6,10,10.9c15.1,3.8,29.5,9.7,42.9,17.6c4.6,2.7,10.3,2.5,14.7-0.6l34.5-24.8
			c0.5-0.3,1-0.5,1.5-0.5c0.4,0,1.2,0.1,1.9,0.8l29.8,29.8c0.9,0.9,1,2.3,0.3,3.4l-24.7,34.7c-3.1,4.3-3.3,10.1-0.6,14.7
			c7.8,13.1,13.6,27.2,17.4,41.9c1.3,5.2,5.6,9.1,10.8,9.9l42,7.1c1.3,0.2,2.2,1.3,2.2,2.6v42.1H451.9z"/>
		<path d="M239.4,136.001c-57,0-103.3,46.3-103.3,103.3s46.3,103.3,103.3,103.3s103.3-46.3,103.3-103.3S296.4,136.001,239.4,136.001
			z M239.4,315.601c-42.1,0-76.3-34.2-76.3-76.3s34.2-76.3,76.3-76.3s76.3,34.2,76.3,76.3S281.5,315.601,239.4,315.601z"/>
	</g>
</g>
<g>
</g>
<g>
</g>
<g>
</g>
<g>
</g>
<g>
</g>
<g>
</g>
<g>
</g>
<g>
</g>
<g>
</g>
<g>
</g>
<g>
</g>
<g>
</g>
<g>
</g>
<g>
</g>
<g>
</g>
</symbol><symbol id="icon-shield" viewBox="0 0 512 512">
<g id="surface1">
<path d="M 217.996094 158.457031 C 164.203125 158.457031 120.441406 202.21875 120.441406 256.007812 C 120.441406 309.800781 164.203125 353.5625 217.996094 353.5625 C 271.785156 353.5625 315.546875 309.800781 315.546875 256.007812 C 315.546875 202.21875 271.785156 158.457031 217.996094 158.457031 Z M 275.914062 237.636719 L 206.027344 307.523438 C 203.09375 310.457031 199.246094 311.925781 195.402344 311.925781 C 191.558594 311.925781 187.714844 310.460938 184.78125 307.523438 L 158.074219 280.816406 C 152.207031 274.953125 152.207031 265.441406 158.074219 259.574219 C 163.9375 253.707031 173.449219 253.707031 179.316406 259.574219 L 195.402344 275.660156 L 254.671875 216.394531 C 260.535156 210.527344 270.046875 210.527344 275.914062 216.394531 C 281.78125 222.257812 281.78125 231.769531 275.914062 237.636719 Z M 275.914062 237.636719 " style=" stroke:none;fill-rule:nonzero;fill:#fff;fill-opacity:1;"/>
<path d="M 435.488281 138.917969 L 435.472656 138.519531 C 435.25 133.601562 435.101562 128.398438 435.011719 122.609375 C 434.59375 94.378906 412.152344 71.027344 383.917969 69.449219 C 325.050781 66.164062 279.511719 46.96875 240.601562 9.042969 L 240.269531 8.726562 C 227.578125 -2.910156 208.433594 -2.910156 195.738281 8.726562 L 195.40625 9.042969 C 156.496094 46.96875 110.957031 66.164062 52.089844 69.453125 C 23.859375 71.027344 1.414062 94.378906 0.996094 122.613281 C 0.910156 128.363281 0.757812 133.566406 0.535156 138.519531 L 0.511719 139.445312 C -0.632812 199.472656 -2.054688 274.179688 22.9375 341.988281 C 36.679688 379.277344 57.492188 411.691406 84.792969 438.335938 C 115.886719 468.679688 156.613281 492.769531 205.839844 509.933594 C 207.441406 510.492188 209.105469 510.945312 210.800781 511.285156 C 213.191406 511.761719 215.597656 512 218.003906 512 C 220.410156 512 222.820312 511.761719 225.207031 511.285156 C 226.902344 510.945312 228.578125 510.488281 230.1875 509.925781 C 279.355469 492.730469 320.039062 468.628906 351.105469 438.289062 C 378.394531 411.636719 399.207031 379.214844 412.960938 341.917969 C 438.046875 273.90625 436.628906 199.058594 435.488281 138.917969 Z M 217.996094 383.605469 C 147.636719 383.605469 90.398438 326.367188 90.398438 256.007812 C 90.398438 185.648438 147.636719 128.410156 217.996094 128.410156 C 288.351562 128.410156 345.59375 185.648438 345.59375 256.007812 C 345.59375 326.367188 288.351562 383.605469 217.996094 383.605469 Z M 217.996094 383.605469 " style=" stroke:none;fill-rule:nonzero;fill:#fff;fill-opacity:1;"/>
</g>
</symbol><symbol id="icon-shifter" viewBox="0 0 512 512">
<g>
	<g>
		<path d="M480.561,71.86V53.895c0-14.857-12.09-26.947-26.947-26.947h-8.982C444.632,12.09,432.541,0,417.684,0H309.895
			c-14.857,0-26.947,12.09-26.947,26.947v53.895H76.351c-24.765,0-44.912,20.148-44.912,44.912v341.333
			c0,24.765,20.148,44.912,44.912,44.912h359.298c24.765,0,44.912-20.148,44.912-44.912V125.754
			c0-12.099-4.859-23.049-12.665-31.133C475.477,89.852,480.561,81.462,480.561,71.86z M300.912,26.947
			c0-4.958,4.033-8.982,8.982-8.982h107.789c4.949,0,8.982,4.024,8.982,8.982v71.86c0,4.958-4.033,8.982-8.982,8.982H313.326h-3.431
			c-4.949,0-8.982-4.024-8.982-8.982V26.947z M157.193,314.386v89.825c0,9.908-8.057,17.965-17.965,17.965
			s-17.965-8.057-17.965-17.965V188.632c0-9.908,8.057-17.965,17.965-17.965s17.965,8.057,17.965,17.965v89.825h80.842v-89.825
			c0-9.908,8.057-17.965,17.965-17.965s17.965,8.057,17.965,17.965v89.825h62.877v17.965c0,4.967,4.024,8.982,8.982,8.982h42.415
			c-3.117,5.345-8.848,8.982-15.468,8.982h-98.807v89.825c0,9.908-8.057,17.965-17.965,17.965s-17.965-8.057-17.965-17.965v-89.825
			H157.193z M354.807,287.439V161.684h35.93v125.754H354.807z M351.376,143.719l-8.982-17.965h54.802l-4.491,17.965H351.376z
			 M462.596,467.088c0,14.857-12.09,26.947-26.947,26.947H76.351c-14.857,0-26.947-12.09-26.947-26.947V125.754
			c0-14.857,12.09-26.947,26.947-26.947h206.596c0,14.857,12.09,26.947,26.947,26.947h12.414l14.534,29.067v105.67H291.93v-71.86
			c0-19.815-16.115-35.93-35.93-35.93s-35.93,16.115-35.93,35.93v71.86h-44.912v-71.86c0-19.815-16.115-35.93-35.93-35.93
			s-35.93,16.115-35.93,35.93v215.579c0,19.815,16.115,35.93,35.93,35.93s35.93-16.115,35.93-35.93v-71.86h44.912v71.86
			c0,19.815,16.115,35.93,35.93,35.93s35.93-16.115,35.93-35.93v-71.86h80.842c19.815,0,35.93-16.115,35.93-35.93V153.807
			l7.015-28.052h1.967c14.309,0,25.932-11.246,26.786-25.34c10.518,3.674,18.127,13.581,18.127,25.34V467.088z M462.596,71.86
			c0,4.958-4.033,8.982-8.982,8.982h-8.982v-35.93h8.982c4.949,0,8.982,4.024,8.982,8.982V71.86z"/>
	</g>
</g>
<g>
	<g>
		<rect x="247.018" y="116.772" width="17.965" height="17.965"/>
	</g>
</g>
<g>
	<g>
		<rect x="130.246" y="116.772" width="17.965" height="17.965"/>
	</g>
</g>
<g>
	<g>
		<rect x="130.246" y="458.105" width="17.965" height="17.965"/>
	</g>
</g>
<g>
	<g>
		<rect x="247.018" y="458.105" width="17.965" height="17.965"/>
	</g>
</g>
<g>
	<g>
		<rect x="363.789" y="350.316" width="17.965" height="17.965"/>
	</g>
</g>
<g>
</g>
<g>
</g>
<g>
</g>
<g>
</g>
<g>
</g>
<g>
</g>
<g>
</g>
<g>
</g>
<g>
</g>
<g>
</g>
<g>
</g>
<g>
</g>
<g>
</g>
<g>
</g>
<g>
</g>
</symbol><symbol id="icon-sold" viewBox="0 0 445 445"><path d="m320.101562 255.289062h-9.101562v46h9.101562c5.597657 0 8.898438-3.375 8.898438-10.175781v-25.902343c0-6.800782-3.300781-9.921876-8.898438-9.921876zm0 0"/><path d="m191.949219 255.210938c-5.597657 0-8.949219 3.101562-8.949219 10v26.5c0 6.902343 3.351562 10 8.949219 10 5.601562 0 9.050781-3.097657 9.050781-10v-26.5c0-6.898438-3.449219-10-9.050781-10zm0 0"/><path d="m398.5 171.289062h-15.050781l-129.667969-121.320312c2.449219-4.796875 3.722656-10.105469 3.71875-15.492188-.011719-19.054687-15.46875-34.4882808-34.523438-34.476562-19.054687.0117188-34.488281 15.46875-34.476562 34.523438-.003906 5.367187 1.273438 10.660156 3.71875 15.4375l-129.667969 121.328124h-15.050781c-25.914062 0-47.5 21.335938-47.5 47.25v121c0 25.917969 21.585938 46.75 47.5 46.75h351c12.382812.023438 24.261719-4.902343 32.996094-13.683593 8.730468-8.777344 13.59375-20.683594 13.503906-33.066407v-121c0-25.914062-20.585938-47.25-46.5-47.25zm-273.101562 144.425782c-13.097657 0-24.097657-6.398438-24.097657-13 0-3.398438 3-8.398438 6.800781-8.398438 4.699219 0 7.699219 7.398438 17 7.398438 4.597657 0 9.699219-1.800782 9.699219-6.601563 0-12.097656-31.699219-10-31.699219-33.398437 0-15 13.097657-20.699219 25.597657-20.699219 5.300781 0 19.902343 1 19.902343 8.800781 0 2.699219-1.800781 8.199219-6.203124 8.199219-3.597657 0-5.5-3.800781-13.699219-3.800781-7.097657 0-10 2.898437-10 6 0 10 31.699219 8.101562 31.699219 33.300781 0 14.398437-10.5 22.199219-25 22.199219zm90.601562-24c0 17.199218-10.75 23.601562-24.550781 23.601562s-24.449219-6.402344-24.449219-23.601562v-26.5c0-17.199219 10.648438-23.601563 24.449219-23.601563s24.550781 6.402344 24.550781 23.601563zm58.800781 22.574218h-31.601562c-3.398438 0-7.199219-1.175781-7.199219-4.375v-63.597656c0-3.300781 4.101562-4.703125 8-4.703125s8 1.402344 8 4.703125v54.972656h22.800781c3 0 4.5 3.101563 4.5 6.5 0 3.402344-1.5 6.5-4.5 6.5zm70.199219-23.175781c0 17.199219-11.101562 23.175781-24.898438 23.175781h-17.703124c-4.097657 0-6.398438-1.773437-6.398438-4.273437v-63.699219c0-2.5 2.300781-5.023437 6.398438-5.023437h17.703124c13.796876 0 24.898438 6.722656 24.898438 23.921875zm-261.972656-119.824219 117.949218-110.339843c12.730469 10.71875 31.332032 10.703125 44.046876-.03125l117.949218 110.371093zm0 0"/></symbol><symbol id="icon-speedometer" viewBox="0 0 950002 950002">
<g>
	<g>
		<path d="M949.869,741.307c-0.072-2.064-0.145-4.139-0.217-6.221c-0.075-2.082-0.152-4.17-0.229-6.268l-0.06-1.57l-0.03-0.787
			l-0.008-0.197l-0.02-1.76l-0.006-0.082l-0.025-0.326l-0.201-2.607c-0.271-3.479-0.542-6.973-0.813-10.467l-0.207-2.645
			l-0.312-3.43c-0.216-2.281-0.431-4.561-0.646-6.836c-0.223-2.271-0.447-4.539-0.669-6.799c-0.115-1.129-0.229-2.256-0.343-3.381
			c-0.138-1.041-0.276-2.08-0.414-3.119c-1.139-8.242-2.156-16.342-3.608-24.129c-0.686-3.896-1.319-7.727-2.031-11.461
			c-0.777-3.725-1.537-7.367-2.277-10.914c-1.402-7.098-3.163-13.727-4.647-19.855c-0.38-1.529-0.752-3.029-1.115-4.492
			c-0.404-1.457-0.8-2.877-1.185-4.264c-0.782-2.766-1.523-5.391-2.221-7.855c-0.71-2.461-1.336-4.771-1.99-6.889
			c-0.674-2.111-1.292-4.051-1.851-5.803c-0.829-2.574-1.528-4.742-2.079-6.455c-0.815-2.529-3.487-3.951-6.043-3.223
			l-160.613,45.771c-2.447,0.697-3.964,3.135-3.498,5.637c0.174,0.934,0.373,2.004,0.595,3.201c0.229,1.205,0.483,2.541,0.759,3.994
			c0.261,1.457,0.466,3.053,0.729,4.74c0.258,1.689,0.532,3.488,0.821,5.383c0.141,0.947,0.308,1.912,0.439,2.91
			c0.114,1,0.23,2.025,0.35,3.07c0.447,4.184,1.115,8.67,1.413,13.48c0.197,2.393,0.401,4.852,0.609,7.361
			c0.156,2.518,0.234,5.098,0.368,7.709c0.348,5.213,0.282,10.641,0.382,16.115l0.023,2.039l-0.072,1.805
			c-0.041,1.203-0.083,2.408-0.124,3.617c-0.032,1.203-0.065,2.41-0.098,3.619l-0.038,1.807l-0.11,2.602
			c-0.148,3.502-0.299,7.002-0.448,10.49l-0.111,2.613l-0.015,0.326l-0.003,0.08c0.002,0.393-0.03-3.111-0.02-1.598l-0.013,0.129
			l-0.048,0.516l-0.095,1.031c-0.124,1.373-0.248,2.738-0.371,4.102c-0.119,1.359-0.238,2.715-0.355,4.062
			c-0.16,1.342-0.319,2.678-0.479,4.004c-0.341,2.65-0.551,5.275-0.973,7.832c-0.37,2.559-0.734,5.072-1.09,7.535
			c-0.426,2.445-0.842,4.838-1.246,7.166c-0.366,2.33-0.856,4.574-1.292,6.746c-0.456,2.168-0.819,4.273-1.292,6.271
			c-0.461,1.998-0.903,3.91-1.324,5.73c-0.208,0.898-0.41,1.773-0.606,2.625c-0.202,0.73-0.397,1.438-0.588,2.125
			c-0.112,0.42-0.218,0.814-0.327,1.221H944.3c2.633,0,4.826-2.066,4.926-4.697c0.001-0.016,0.001-0.031,0.002-0.047
			c0.163-3.658,0.331-7.414,0.503-11.254c0.073-3.836,0.147-7.756,0.224-11.742c0.112-3.982-0.009-8.029-0.02-12.121
			C949.912,745.432,949.891,743.375,949.869,741.307z"/>
		<path d="M898.791,535.129c2.635-1.061,3.837-4.113,2.622-6.68c-0.54-1.141-1.171-2.475-1.886-3.984
			c-0.675-1.418-1.421-2.988-2.231-4.697c-1.049-2.137-2.183-4.447-3.396-6.916c-1.222-2.459-2.521-5.076-3.893-7.834
			c-0.695-1.434-1.378-2.617-2.093-3.963c-0.712-1.316-1.441-2.662-2.186-4.037c-1.497-2.744-3.028-5.613-4.671-8.551
			c-1.697-2.906-3.451-5.912-5.254-9.002c-0.904-1.541-1.821-3.104-2.749-4.684c-0.971-1.556-1.954-3.131-2.947-4.723
			c-1.997-3.171-4.038-6.412-6.112-9.706c-4.377-6.45-8.734-13.196-13.597-19.761c-1.194-1.653-2.395-3.312-3.598-4.976l-1.81-2.494
			l-1.884-2.453c-2.52-3.263-5.05-6.537-7.58-9.812c-2.575-3.237-5.239-6.406-7.85-9.587c-1.32-1.58-2.599-3.183-3.946-4.727
			c-1.351-1.539-2.697-3.074-4.04-4.603c-1.343-1.523-2.68-3.043-4.011-4.554c-1.323-1.517-2.657-3.008-4.033-4.45
			c-2.724-2.901-5.414-5.766-8.06-8.585c-2.65-2.81-5.394-5.451-8.005-8.091c-2.63-2.626-5.186-5.205-7.796-7.6
			c-2.581-2.416-5.093-4.766-7.521-7.04c-2.418-2.279-4.887-4.349-7.187-6.399c-2.319-2.028-4.542-3.971-6.656-5.819
			c-2.168-1.787-4.225-3.481-6.157-5.073c-1.934-1.586-3.743-3.07-5.416-4.442c-1.676-1.367-3.279-2.552-4.692-3.657
			c-2.058-1.579-3.796-2.913-5.177-3.973c-2.105-1.616-5.106-1.271-6.798,0.776l-86.204,104.346
			c-1.625,1.968-1.486,4.844,0.327,6.64c0.721,0.712,1.553,1.536,2.489,2.463c0.897,0.901,1.925,1.855,2.979,2.969
			c1.054,1.113,2.192,2.318,3.409,3.604c1.219,1.28,2.515,2.642,3.88,4.078c1.317,1.482,2.702,3.043,4.147,4.67
			c1.427,1.642,2.987,3.272,4.471,5.09c1.497,1.8,3.044,3.66,4.636,5.573c1.621,1.878,3.168,3.917,4.77,5.977
			c1.585,2.074,3.279,4.119,4.871,6.312c1.593,2.186,3.212,4.408,4.851,6.658c0.836,1.107,1.629,2.262,2.41,3.434
			c0.79,1.164,1.584,2.332,2.381,3.506c0.798,1.168,1.601,2.342,2.404,3.52c0.802,1.178,1.537,2.41,2.312,3.615
			c1.522,2.432,3.1,4.828,4.596,7.277c1.458,2.473,2.917,4.947,4.369,7.41l1.09,1.838l1.021,1.877
			c0.682,1.246,1.361,2.49,2.038,3.727c2.795,4.889,5.154,9.93,7.623,14.666c1.13,2.428,2.241,4.814,3.329,7.152
			c0.544,1.164,1.082,2.316,1.614,3.453c0.493,1.158,0.979,2.301,1.459,3.43c0.965,2.246,1.903,4.434,2.812,6.547
			c0.839,2.143,1.649,4.213,2.427,6.199c0.39,0.992,0.77,1.963,1.142,2.912c0.352,0.926,0.788,1.928,1.022,2.699
			c0.555,1.619,1.08,3.156,1.574,4.6c0.504,1.434,0.977,2.775,1.413,4.016c0.573,1.711,1.099,3.279,1.574,4.697
			c0.529,1.584,0.995,2.984,1.395,4.184c0.898,2.693,3.88,4.066,6.515,3.008L898.791,535.129z"/>
		<path d="M459.808,348.748c1.306,0.178,2.75,0.375,4.324,0.59c1.564,0.272,3.256,0.567,5.063,0.882
			c1.804,0.31,3.724,0.639,5.747,0.987c1.758,0.292,3.579,0.716,5.472,1.112l54.404-111.282c-2.697-0.421-5.372-0.839-7.993-1.248
			c-1.796-0.267-3.564-0.574-5.325-0.794c-1.761-0.213-3.501-0.424-5.218-0.632c-3.429-0.407-6.764-0.804-9.989-1.187
			c-3.234-0.277-6.359-0.545-9.358-0.802c-3-0.23-5.861-0.533-8.6-0.663c-2.734-0.134-5.328-0.262-7.765-0.382
			c-2.435-0.115-4.713-0.222-6.818-0.322c-2.107-0.034-4.043-0.065-5.792-0.093c-2.46-0.03-4.548-0.055-6.222-0.075
			c-2.655-0.032-4.852,2.043-4.979,4.695l-4.961,103.577c-0.122,2.552,1.719,4.774,4.25,5.121
			C457.126,348.38,458.383,348.553,459.808,348.748z"/>
		<path d="M606.027,405.781c1.462,1.063,2.848,2.071,4.15,3.02c1.304,0.934,2.525,1.808,3.654,2.617
			c0.489,0.336,1.296,0.948,1.955,1.438c0.679,0.507,1.326,0.99,1.939,1.448c1.339,0.999,2.521,1.881,3.533,2.636
			c2.276,1.698,5.506,1.124,7.065-1.25l71.03-108.196c1.56-2.374,0.803-5.567-1.661-6.98c-1.096-0.628-2.375-1.362-3.823-2.193
			c-0.665-0.382-1.365-0.783-2.101-1.205c-0.801-0.453-1.638-0.927-2.511-1.421c-2.021-1.114-4.207-2.317-6.542-3.604
			c-2.336-1.273-4.823-2.627-7.443-4.056c-2.497-1.251-5.121-2.566-7.86-3.939c-2.75-1.342-5.556-2.835-8.565-4.19
			c-2.995-1.372-6.091-2.791-9.273-4.25c-3.161-1.492-6.497-2.847-9.883-4.269c-3.4-1.392-6.821-2.914-10.394-4.257
			c-0.905-0.343-1.824-0.69-2.736-1.036l-30.642,132.998c1.694,1.064,3.29,2.192,4.862,3.21
			C602.611,403.515,604.361,404.676,606.027,405.781z"/>
		<path d="M364.434,348.206c1.372-0.181,2.719-0.405,4.064-0.547c1.345-0.136,2.674-0.271,3.984-0.405
			c2.615-0.271,5.158-0.535,7.619-0.791c2.468-0.165,4.853-0.325,7.142-0.479c1.142-0.078,2.26-0.154,3.353-0.229
			c1.09-0.073,2.182-0.166,3.118-0.167c1.929-0.051,3.76-0.098,5.479-0.143c1.714-0.054,3.316-0.105,4.8-0.152
			c1.829-0.012,3.509-0.023,5.025-0.033c1.67-0.009,3.146-0.017,4.408-0.024c2.84-0.015,5.072-2.42,4.886-5.254l-6.394-97.57
			c-0.187-2.834-2.713-4.927-5.53-4.571c-1.253,0.158-2.716,0.343-4.373,0.552c-1.536,0.195-3.237,0.412-5.089,0.648
			c-2.188,0.325-4.554,0.675-7.083,1.05c-2.521,0.384-5.205,0.793-8.034,1.224c-1.448,0.204-2.781,0.475-4.18,0.739
			c-1.395,0.266-2.822,0.539-4.279,0.817c-2.909,0.562-5.938,1.148-9.076,1.754c-3.113,0.709-6.333,1.443-9.642,2.196
			c-1.651,0.379-3.325,0.764-5.019,1.154c-1.692,0.396-3.389,0.88-5.11,1.325c-3.435,0.915-6.942,1.85-10.51,2.8
			c-3.532,1.065-7.123,2.147-10.757,3.243c-1.812,0.561-3.643,1.09-5.463,1.689c-1.812,0.619-3.637,1.24-5.467,1.865
			c-1.827,0.626-3.661,1.254-5.5,1.885c-1.84,0.626-3.683,1.255-5.501,1.972c-3.645,1.391-7.304,2.788-10.963,4.185
			c-3.643,1.426-7.226,3.006-10.817,4.501c-1.79,0.763-3.585,1.499-5.354,2.282c-1.757,0.811-3.508,1.619-5.253,2.425
			c-1.741,0.806-3.476,1.61-5.201,2.409c-1.725,0.798-3.443,1.584-5.113,2.451c-3.352,1.692-6.663,3.364-9.919,5.008
			c-3.257,1.633-6.361,3.435-9.444,5.094c-3.069,1.69-6.087,3.302-8.934,5.039c-2.863,1.698-5.648,3.351-8.342,4.949
			c-2.702,1.576-5.208,3.278-7.664,4.816c-2.439,1.563-4.776,3.062-6.999,4.487c-2.175,1.493-4.239,2.909-6.178,4.24
			c-1.934,1.332-3.744,2.578-5.418,3.731c-1.672,1.153-3.151,2.296-4.514,3.284c-1.847,1.364-3.424,2.528-4.7,3.47
			c-2.131,1.573-2.631,4.544-1.141,6.735l40.515,59.566c1.442,2.12,4.261,2.785,6.494,1.524c1.029-0.58,2.245-1.267,3.632-2.049
			c1.209-0.669,2.517-1.459,3.994-2.228c1.476-0.77,3.072-1.6,4.777-2.488c1.7-0.889,3.51-1.835,5.417-2.832
			c1.94-0.93,3.979-1.908,6.107-2.928c2.138-0.996,4.307-2.137,6.646-3.132c2.321-1.019,4.721-2.072,7.189-3.155
			c2.443-1.125,5.031-2.108,7.649-3.158c2.632-1.02,5.268-2.174,8.029-3.149c2.749-0.991,5.545-1.998,8.374-3.018
			c1.403-0.533,2.847-0.984,4.294-1.446c1.444-0.465,2.896-0.932,4.353-1.401c1.454-0.47,2.914-0.942,4.378-1.416
			c1.472-0.447,2.965-0.847,4.448-1.275c2.979-0.824,5.938-1.738,8.938-2.504c3.002-0.743,6.004-1.486,8.994-2.225
			c1.484-0.395,2.99-0.704,4.489-1.013c1.496-0.315,2.988-0.629,4.475-0.942c1.482-0.315,2.959-0.628,4.429-0.94
			c1.473-0.294,2.954-0.521,4.415-0.784c2.922-0.507,5.808-1.009,8.648-1.501C358.885,348.973,361.688,348.585,364.434,348.206z"/>
		<path d="M88.175,425.22c-1.062,1.502-2.128,3.011-3.199,4.526c-1.068,1.514-2.14,3.034-3.216,4.559
			c-1.071,1.527-2.073,3.111-3.115,4.669c-2.054,3.137-4.156,6.25-6.168,9.422c-1.965,3.199-3.93,6.398-5.887,9.585l-1.46,2.386
			l-1.386,2.425c-0.921,1.612-1.839,3.221-2.754,4.822c-3.74,6.353-6.989,12.847-10.291,19.015
			c-1.537,3.145-3.049,6.238-4.529,9.266c-0.734,1.512-1.461,3.01-2.178,4.488c-0.675,1.498-1.341,2.979-1.999,4.441
			c-1.31,2.918-2.584,5.758-3.817,8.504c-1.15,2.781-2.262,5.467-3.329,8.045c-1.046,2.586-2.103,5.033-3.004,7.408
			c-0.889,2.377-1.733,4.633-2.527,6.752c-0.79,2.117-1.529,4.098-2.212,5.93c-0.631,1.85-1.21,3.549-1.734,5.084
			c-0.68,2.018-1.264,3.75-1.741,5.168c-0.845,2.506,0.44,5.225,2.91,6.172l37.71,14.457c2.4,0.92,5.103-0.154,6.212-2.473
			c0.55-1.148,1.207-2.523,1.962-4.102c0.626-1.301,1.318-2.742,2.073-4.311c0.802-1.547,1.669-3.217,2.596-5.004
			c0.924-1.781,1.906-3.68,2.942-5.68c1.044-1.994,2.246-4.039,3.439-6.199c1.208-2.148,2.467-4.387,3.77-6.705
			c1.373-2.273,2.792-4.625,4.252-7.043c0.727-1.207,1.464-2.43,2.21-3.668c0.785-1.215,1.58-2.443,2.383-3.688
			c1.606-2.48,3.247-5.012,4.916-7.59c3.546-5.02,7.014-10.307,10.933-15.406c0.957-1.289,1.918-2.582,2.882-3.879l1.445-1.947
			l1.514-1.904c2.016-2.539,4.04-5.086,6.064-7.633c2.061-2.516,4.2-4.967,6.279-7.439c1.054-1.227,2.066-2.479,3.145-3.672
			c1.08-1.191,2.156-2.379,3.228-3.562c1.07-1.182,2.135-2.359,3.195-3.531c1.05-1.178,2.11-2.335,3.211-3.444
			c2.166-2.243,4.306-4.459,6.411-6.64c2.101-2.177,4.294-4.197,6.364-6.239c2.086-2.027,4.104-4.027,6.182-5.86
			c2.044-1.86,4.032-3.669,5.956-5.42c1.908-1.761,3.874-3.333,5.69-4.911c1.828-1.557,3.58-3.049,5.246-4.468
			c1.636-1.295,3.188-2.523,4.646-3.679c1.45-1.154,2.807-2.235,4.062-3.235c0.576-0.476,1.356-1.046,2.015-1.547
			c0.676-0.511,1.321-0.997,1.933-1.458c1.333-1.007,2.51-1.895,3.518-2.655c2.267-1.711,2.618-4.973,0.774-7.133l-42.935-50.299
			c-1.844-2.16-5.121-2.325-7.166-0.355c-0.909,0.876-1.972,1.899-3.174,3.058c-0.552,0.531-1.134,1.092-1.744,1.679
			c-0.621,0.603-1.212,1.152-1.982,1.939c-1.472,1.485-3.063,3.092-4.764,4.808c-1.692,1.717-3.493,3.544-5.392,5.47
			c-1.765,1.912-3.621,3.922-5.557,6.019c-1.912,2.113-3.974,4.242-5.969,6.576c-2.003,2.322-4.073,4.723-6.202,7.19
			c-2.155,2.438-4.24,5.057-6.385,7.714c-2.129,2.671-4.373,5.336-6.514,8.16c-2.135,2.824-4.305,5.695-6.501,8.603
			C90.296,422.222,89.229,423.71,88.175,425.22z"/>
		<path d="M10.155,601.572c-0.251,1.236-0.545,2.684-0.878,4.32c-0.305,1.502-0.643,3.166-1.011,4.977
			c-0.361,1.852-0.714,4.039-1.108,6.271c-0.388,2.254-0.8,4.652-1.234,7.18c-0.21,1.26-0.45,2.562-0.649,3.875
			c-0.177,1.305-0.357,2.639-0.542,4c-0.704,5.453-1.631,11.32-2.165,17.588c-0.31,3.123-0.628,6.33-0.953,9.609
			c-0.268,3.283-0.447,6.645-0.678,10.053c-0.54,6.811-0.639,13.875-0.864,21.021L0,693.152l0.013,2.697
			c0.01,1.801,0.02,3.605,0.03,5.414c0.011,1.807,0.022,3.617,0.032,5.428l0.017,2.717l0.104,2.719
			c0.147,3.617,0.294,7.236,0.441,10.84l0.111,2.695l0.034,0.873l0.048,0.65l0.096,1.299c0.128,1.732,0.255,3.459,0.382,5.18
			c0.127,1.721,0.254,3.434,0.379,5.139c0.173,1.777,0.344,3.549,0.516,5.309c0.173,1.758,0.345,3.504,0.516,5.24
			c0.086,0.865,0.172,1.729,0.258,2.588c0.107,0.846,0.214,1.689,0.32,2.529c0.426,3.35,0.845,6.645,1.255,9.871
			c0.495,3.211,0.979,6.354,1.449,9.412c0.44,3.057,1.007,6.014,1.528,8.873c0.043,0.229,0.086,0.455,0.128,0.682
			c0.435,2.338,2.469,4.031,4.846,4.031h13.291c2.838,0,5.09-2.389,4.923-5.221c-0.045-0.756-0.091-1.52-0.142-2.291
			c-0.166-2.756-0.366-5.598-0.43-8.531c-0.096-2.928-0.194-5.936-0.295-9.01c-0.019-3.072-0.038-6.211-0.057-9.404
			c-0.005-0.797-0.01-1.598-0.015-2.4c0.017-0.791,0.035-1.586,0.053-2.385c0.035-1.592,0.07-3.197,0.106-4.812
			c0.035-1.611,0.071-3.234,0.107-4.865c0.08-1.707,0.159-3.424,0.24-5.146c0.08-1.723,0.161-3.453,0.241-5.188l0.061-1.303
			l0.03-0.652l0.004-0.082c0-0.207,0.004,0.191,0.006,0.123l0.012-0.158l0.025-0.314l0.202-2.523
			c0.268-3.365,0.537-6.74,0.807-10.117l0.206-2.527l0.291-2.521c0.194-1.678,0.387-3.354,0.58-5.027
			c0.192-1.672,0.384-3.34,0.575-5.002l0.285-2.488l0.369-2.471c1.012-6.57,1.872-13.033,3.132-19.221
			c0.591-3.1,1.12-6.15,1.727-9.119c0.661-2.957,1.307-5.85,1.936-8.666c1.164-5.641,2.673-10.885,3.901-15.746
			c0.315-1.213,0.623-2.402,0.924-3.562c0.318-1.143,0.661-2.225,0.977-3.297c0.637-2.133,1.242-4.156,1.81-6.059
			c0.581-1.918,1.058-3.633,1.614-5.354c0.583-1.756,1.117-3.365,1.601-4.82c0.526-1.586,0.991-2.986,1.389-4.186
			c0.895-2.693-0.668-5.58-3.412-6.311l-33.319-8.885C13.513,597.064,10.721,598.789,10.155,601.572z"/>
		<path d="M387.317,774.27c10.84,5.299,22.323,7.811,33.628,7.811c28.378,0,55.65-15.811,68.953-43.023
			c2.562-5.238,4.545-11.021,5.835-16.467l77.577-336.717l29.544-128.233l18.303-79.437c2.13-9.245-5.224-15.543-12.602-15.543
			c-4.319,0-8.647,2.159-11.087,7.148l-37.245,76.183l-54.944,112.386L352.104,671.689
			C333.501,709.74,349.267,755.668,387.317,774.27z M423.789,665.836c20.759,0,37.588,16.828,37.588,37.588
			c0,20.758-16.829,37.588-37.588,37.588s-37.588-16.83-37.588-37.588C386.201,682.662,403.03,665.836,423.789,665.836z"/>
	</g>
</g>

</symbol><symbol id="icon-squared-menu" viewBox="0 0 16 16"><rect height="4" width="4"/><rect height="4" width="4" x="6"/><rect height="4" width="4" x="12"/><rect height="4" width="4" y="6"/><rect height="4" width="4" x="6" y="6"/><rect height="4" width="4" x="12" y="6"/><rect height="4" width="4" y="12"/><rect height="4" width="4" x="6" y="12"/><rect height="4" width="4" x="12" y="12"/></symbol><symbol id="icon-telephone" viewBox="0 0 480 480">
<g>
	<g>
		<path d="M365.354,317.9c-15.7-15.5-35.3-15.5-50.9,0c-11.9,11.8-23.8,23.6-35.5,35.6c-3.2,3.3-5.9,4-9.8,1.8
			c-7.7-4.2-15.9-7.6-23.3-12.2c-34.5-21.7-63.4-49.6-89-81c-12.7-15.6-24-32.3-31.9-51.1c-1.6-3.8-1.3-6.3,1.8-9.4
			c11.9-11.5,23.5-23.3,35.2-35.1c16.3-16.4,16.3-35.6-0.1-52.1c-9.3-9.4-18.6-18.6-27.9-28c-9.6-9.6-19.1-19.3-28.8-28.8
			c-15.7-15.3-35.3-15.3-50.9,0.1c-12,11.8-23.5,23.9-35.7,35.5c-11.3,10.7-17,23.8-18.2,39.1c-1.9,24.9,4.2,48.4,12.8,71.3
			c17.6,47.4,44.4,89.5,76.9,128.1c43.9,52.2,96.3,93.5,157.6,123.3c27.6,13.4,56.2,23.7,87.3,25.4c21.4,1.2,40-4.2,54.9-20.9
			c10.2-11.4,21.7-21.8,32.5-32.7c16-16.2,16.1-35.8,0.2-51.8C403.554,355.9,384.454,336.9,365.354,317.9z"/>
		<path d="M346.254,238.2l36.9-6.3c-5.8-33.9-21.8-64.6-46.1-89c-25.7-25.7-58.2-41.9-94-46.9l-5.2,37.1
			c27.7,3.9,52.9,16.4,72.8,36.3C329.454,188.2,341.754,212,346.254,238.2z"/>
		<path d="M403.954,77.8c-42.6-42.6-96.5-69.5-156-77.8l-5.2,37.1c51.4,7.2,98,30.5,134.8,67.2c34.9,34.9,57.8,79,66.1,127.5
			l36.9-6.3C470.854,169.3,444.354,118.3,403.954,77.8z"/>
</g>
</g>


</symbol><symbol id="icon-truck" viewBox="0 0 612 612">
<g>
	<g>
		<path d="M226.764,375.35c-28.249,0-51.078,22.91-51.078,51.16c0,28.166,22.829,51.078,51.078,51.078s51.078-22.912,51.078-51.078
			C277.841,398.26,255.013,375.35,226.764,375.35z M226.764,452.049c-14.125,0-25.54-11.498-25.54-25.541
			c0-14.123,11.415-25.539,25.54-25.539c14.124,0,25.539,11.416,25.539,25.539C252.302,440.551,240.888,452.049,226.764,452.049z
			 M612,337.561v54.541c0,13.605-11.029,24.635-24.636,24.635h-26.36c-4.763-32.684-32.929-57.812-66.927-57.812
			c-33.914,0-62.082,25.129-66.845,57.812H293.625c-4.763-32.684-32.93-57.812-66.845-57.812c-33.915,0-62.082,25.129-66.844,57.812
			h-33.012c-13.606,0-24.635-11.029-24.635-24.635v-54.541H612L612,337.561z M494.143,375.35c-28.249,0-51.16,22.91-51.16,51.16
			c0,28.166,22.912,51.078,51.16,51.078c28.166,0,51.077-22.912,51.077-51.078C545.22,398.26,522.309,375.35,494.143,375.35z
			 M494.143,452.049c-14.125,0-25.539-11.498-25.539-25.541c0-14.123,11.414-25.539,25.539-25.539
			c14.042,0,25.539,11.416,25.539,25.539C519.682,440.551,508.185,452.049,494.143,452.049z M602.293,282.637l-96.817-95.751
			c-6.159-6.077-14.453-9.526-23.076-9.526h-48.86v-18.313c0-13.631-11.004-24.635-24.635-24.635H126.907
			c-13.55,0-24.635,11.005-24.635,24.635v3.86L2.3,174.429l177.146,23.068L0,215.323l178.814,25.423L0,256.25l102.278,19.29
			l-0.007,48.403h509.712v-17.985C611.983,297.171,608.452,288.796,602.293,282.637z M560.084,285.839h-93.697
			c-2.135,0-3.86-1.724-3.86-3.859v-72.347c0-2.135,1.725-3.86,3.86-3.86h17.82c0.985,0,1.971,0.411,2.71,1.068l75.796,72.347
			C565.257,281.569,563.532,285.839,560.084,285.839z"/>
	</g>
</g>
<g>
</g>
<g>
</g>
<g>
</g>
<g>
</g>
<g>
</g>
<g>
</g>
<g>
</g>
<g>
</g>
<g>
</g>
<g>
</g>
<g>
</g>
<g>
</g>
<g>
</g>
<g>
</g>
<g>
</g>
</symbol><symbol id="icon-video-camera" viewBox="0 0 57 57">
<g>
	<path d="M55.332,6.643c-1.02-0.438-2.156-0.235-2.952,0.523L41,17.669V8.944C41,6.218,38.782,4,36.056,4H4.944
		C2.218,4,0,6.218,0,8.944v23.265C0,34.851,2.149,37,4.791,37h14.775l-6.762,14.579c-0.232,0.501-0.015,1.096,0.486,1.328
		C13.426,52.971,13.569,53,13.71,53c0.377,0,0.738-0.215,0.908-0.579l6.514-14.044l6.514,14.044C27.815,52.785,28.176,53,28.553,53
		c0.141,0,0.284-0.029,0.42-0.093c0.501-0.232,0.719-0.827,0.486-1.328L22.698,37h13.129C38.679,37,41,34.679,41,31.826v-8.002
		l11.32,10.819c0.531,0.529,1.213,0.808,1.917,0.808c0.353,0,0.71-0.069,1.057-0.212C56.331,34.812,57,33.809,57,32.683v-23.5
		C57,8.058,56.361,7.084,55.332,6.643z M39,31.826C39,33.576,37.577,35,35.827,35H21.169c-0.002,0-0.004,0-0.006,0h-0.061
		c-0.003,0-0.007,0-0.01,0H4.791C3.252,35,2,33.748,2,32.209V8.944C2,7.321,3.321,6,4.944,6h31.112C37.679,6,39,7.321,39,8.944
		V31.826z M55,32.683c0,0.477-0.357,0.661-0.467,0.706c-0.136,0.057-0.488,0.152-0.803-0.165L41.221,21.27
		c-0.146-0.147-0.224-0.344-0.221-0.553c0.003-0.209,0.087-0.402,0.228-0.536l12.52-11.556c0.169-0.161,0.346-0.208,0.495-0.208
		c0.13,0,0.239,0.037,0.301,0.063C54.65,8.526,55,8.713,55,9.183V32.683z"/>
	<path d="M18.137,19.723C18.683,18.772,19,17.673,19,16.5c0-3.584-2.916-6.5-6.5-6.5S6,12.916,6,16.5S8.916,23,12.5,23
		c1.687,0,3.221-0.651,4.377-1.709l1.416,1.416C18.488,22.902,18.744,23,19,23s0.512-0.098,0.707-0.293
		c0.391-0.391,0.391-1.023,0-1.414L18.137,19.723z M12.5,21C10.019,21,8,18.981,8,16.5s2.019-4.5,4.5-4.5s4.5,2.019,4.5,4.5
		c0,0.615-0.125,1.201-0.35,1.736l-1.943-1.943c-0.391-0.391-1.023-0.391-1.414,0s-0.391,1.023,0,1.414l2.161,2.161
		C14.661,20.564,13.635,21,12.5,21z"/>
</g>
<g>
</g>
<g>
</g>
<g>
</g>
<g>
</g>
<g>
</g>
<g>
</g>
<g>
</g>
<g>
</g>
<g>
</g>
<g>
</g>
<g>
</g>
<g>
</g>
<g>
</g>
<g>
</g>
<g>
</g>
</symbol><symbol id="icon-vodafone" viewBox="0 0 378 380">
<g id="surface1">
<path style=" stroke:none;fill-rule:nonzero;fill:#fff;fill-opacity:1;" d="M 119.441406 14.328125 C 166.90625 -4.589844 222.195312 -3.28125 268.394531 18.691406 C 255.230469 16.691406 241.839844 18.199219 228.808594 20.402344 C 193.417969 27.085938 159.785156 43.738281 133.496094 68.476562 C 108.289062 93.253906 90.625 126.128906 85.636719 161.300781 C 82.335938 186.222656 85.394531 212.363281 96.578125 235.046875 C 108.101562 258.847656 128.386719 278.367188 152.835938 288.441406 C 176.394531 298.410156 203.722656 298.300781 227.585938 289.402344 C 263.390625 276.261719 289.117188 240.78125 292.058594 202.875 C 293.910156 178.03125 287.867188 151.601562 271.175781 132.546875 C 255.242188 113.894531 231.9375 103.621094 208.617188 97.773438 C 207.367188 74.773438 218.203125 52.050781 235.386719 37.09375 C 244.929688 28.488281 256.773438 23.003906 269.019531 19.492188 L 269.949219 19.171875 C 305.007812 35.984375 334.796875 63.710938 353.777344 97.75 C 370.039062 126.730469 378.519531 160.125 377.679688 193.390625 C 377.519531 236.40625 361.441406 278.996094 333.878906 311.886719 C 307.816406 343.253906 271.363281 365.816406 231.632812 374.851562 C 191.796875 384.042969 148.9375 380.078125 111.65625 363.148438 C 75.175781 346.855469 44.269531 318.53125 24.609375 283.691406 C 8.253906 254.738281 -0.398438 221.355469 0.320312 188.050781 C 0.398438 146.554688 15.132812 105.378906 40.859375 72.929688 C 61.410156 47.019531 88.671875 26.417969 119.441406 14.328125 Z M 119.441406 14.328125 "/>
<path style=" stroke:none;fill-rule:nonzero;fill:none;fill-opacity:1;" d="M 228.808594 20.402344 C 241.839844 18.199219 255.230469 16.691406 268.394531 18.691406 L 270.285156 19.011719 L 269.019531 19.492188 C 256.773438 23.003906 244.929688 28.488281 235.386719 37.09375 C 218.203125 52.050781 207.367188 74.773438 208.617188 97.773438 C 231.9375 103.621094 255.242188 113.894531 271.175781 132.546875 C 287.867188 151.601562 293.910156 178.03125 292.058594 202.875 C 289.117188 240.78125 263.390625 276.261719 227.585938 289.402344 C 203.722656 298.300781 176.394531 298.410156 152.835938 288.441406 C 128.386719 278.367188 108.101562 258.847656 96.578125 235.046875 C 85.394531 212.363281 82.335938 186.222656 85.636719 161.300781 C 90.625 126.128906 108.289062 93.253906 133.496094 68.476562 C 159.785156 43.738281 193.417969 27.085938 228.808594 20.402344 Z M 228.808594 20.402344 "/>
</g>
</symbol><symbol id="icon-youtube" viewBox="0 0 90 90">
<g>
	<path id="YouTube" d="M70.939,65.832H66l0.023-2.869c0-1.275,1.047-2.318,2.326-2.318h0.315c1.282,0,2.332,1.043,2.332,2.318
		L70.939,65.832z M52.413,59.684c-1.253,0-2.278,0.842-2.278,1.873V75.51c0,1.029,1.025,1.869,2.278,1.869
		c1.258,0,2.284-0.84,2.284-1.869V61.557C54.697,60.525,53.671,59.684,52.413,59.684z M82.5,51.879v26.544
		C82.5,84.79,76.979,90,70.23,90H19.771C13.02,90,7.5,84.79,7.5,78.423V51.879c0-6.367,5.52-11.578,12.271-11.578H70.23
		C76.979,40.301,82.5,45.512,82.5,51.879z M23.137,81.305l-0.004-27.961l6.255,0.002v-4.143l-16.674-0.025v4.073l5.205,0.015v28.039
		H23.137z M41.887,57.509h-5.215v14.931c0,2.16,0.131,3.24-0.008,3.621c-0.424,1.158-2.33,2.388-3.073,0.125
		c-0.126-0.396-0.015-1.591-0.017-3.643l-0.021-15.034h-5.186l0.016,14.798c0.004,2.268-0.051,3.959,0.018,4.729
		c0.127,1.357,0.082,2.939,1.341,3.843c2.346,1.69,6.843-0.252,7.968-2.668l-0.01,3.083l4.188,0.005L41.887,57.509L41.887,57.509z
		 M58.57,74.607L58.559,62.18c-0.004-4.736-3.547-7.572-8.356-3.74l0.021-9.239l-5.209,0.008l-0.025,31.89l4.284-0.062l0.39-1.986
		C55.137,84.072,58.578,80.631,58.57,74.607z M74.891,72.96l-3.91,0.021c-0.002,0.155-0.008,0.334-0.01,0.529v2.182
		c0,1.168-0.965,2.119-2.137,2.119h-0.766c-1.174,0-2.139-0.951-2.139-2.119V75.45v-2.4v-3.097h8.954v-3.37
		c0-2.463-0.063-4.925-0.267-6.333c-0.641-4.454-6.893-5.161-10.051-2.881c-0.991,0.712-1.748,1.665-2.188,2.945
		c-0.444,1.281-0.665,3.031-0.665,5.254v7.41C61.714,85.296,76.676,83.555,74.891,72.96z M54.833,32.732
		c0.269,0.654,0.687,1.184,1.254,1.584c0.56,0.394,1.276,0.592,2.134,0.592c0.752,0,1.418-0.203,1.998-0.622
		c0.578-0.417,1.065-1.04,1.463-1.871l-0.099,2.046h5.813V9.74H62.82v19.24c0,1.042-0.858,1.895-1.907,1.895
		c-1.043,0-1.904-0.853-1.904-1.895V9.74h-4.776v16.674c0,2.124,0.039,3.54,0.102,4.258C54.4,31.385,54.564,32.069,54.833,32.732z
		 M37.217,18.77c0-2.373,0.198-4.226,0.591-5.562c0.396-1.331,1.107-2.401,2.137-3.208c1.027-0.811,2.342-1.217,3.941-1.217
		c1.345,0,2.497,0.264,3.459,0.781c0.967,0.52,1.713,1.195,2.23,2.028c0.527,0.836,0.885,1.695,1.076,2.574
		c0.195,0.891,0.291,2.235,0.291,4.048v6.252c0,2.293-0.092,3.98-0.271,5.051c-0.177,1.074-0.557,2.07-1.146,3.004
		c-0.58,0.924-1.329,1.615-2.237,2.056c-0.918,0.445-1.968,0.663-3.154,0.663c-1.325,0-2.441-0.183-3.361-0.565
		c-0.923-0.38-1.636-0.953-2.144-1.714c-0.513-0.762-0.874-1.69-1.092-2.772c-0.219-1.081-0.323-2.707-0.323-4.874L37.217,18.77
		L37.217,18.77z M41.77,28.59c0,1.4,1.042,2.543,2.311,2.543c1.27,0,2.308-1.143,2.308-2.543V15.43c0-1.398-1.038-2.541-2.308-2.541
		c-1.269,0-2.311,1.143-2.311,2.541V28.59z M25.682,35.235h5.484l0.006-18.96l6.48-16.242h-5.998l-3.445,12.064L24.715,0h-5.936
		l6.894,16.284L25.682,35.235z"/>
</g>
<g>
</g>
<g>
</g>
<g>
</g>
<g>
</g>
<g>
</g>
<g>
</g>
<g>
</g>
<g>
</g>
<g>
</g>
<g>
</g>
<g>
</g>
<g>
</g>
<g>
</g>
<g>
</g>
<g>
</g>
</symbol></svg>