<svg xmlns="http://www.w3.org/2000/svg" width="595.275" height="595.275" viewBox="0 0 595.275 595.275">
    <g fill="#00923F">
        <path d="M426.653 377.946a.757.757 0 0 0-.557-.586l-1.322-1.562c-.525-.521-.832-1.25-1.534-1.6-.908-1.336-2.043-2.473-3.164-3.621l-1.757-1.916c-.271-.684-.913-1.022-1.401-1.503-.291-.775-.846-1.325-1.521-1.771v0c-.111-.106-.234-.205-.334-.321a407.987 407.987 0 0 0-12.688-14.189c-.663-.706-.5-1.343.055-2.022.846-1.036 1.845-1.952 2.511-3.133.095.013.161-.025.199-.112l8.741-10.148c.832-.858 1.785-1.622 2.229-2.792l.002-.001v-.004l.002.005c.367-.065.547-.331.686-.641 3.262-3.72 6.524-7.438 9.78-11.163.266-.304.605-.646.384-1.093-.193-.389-.629-.294-.979-.292-3.107.014-6.216.038-9.323.059-.715-.027-1.445.03-2.141-.101-1.24-.234-2.084.169-2.593 1.31-.835.729-1.513 1.592-2.113 2.518l-.002.004-1.57 1.853-.007-.014c-.581.58-1.262 1.075-1.6 1.864-.563.894-1.571 1.433-1.953 2.468v.001l-1.115 1.237c-3.135 3.424-6.085 7.003-9.021 10.595l-.999 1.255c-1.188 1.388-2.381 2.772-3.561 4.167-.272.321-.579.716-.989.628-.546-.118-.308-.68-.338-1.054-.049-.612-.034-1.229-.046-1.845l-.005-23.644c.282-1.266-.651-1.465-1.463-1.404-2.797.208-5.595.136-8.384.054-1.585-.046-1.994.414-1.988 1.987.058 16.021.033 32.044.038 48.065 0 2.229.033 4.456.052 6.685l.001.624c-.132 2.496-.132 2.495 2.3 2.491 1.97-.002 3.94 0 5.91 0 3.722 0 3.722 0 3.534-3.74l.003-9.95c.003-1.574-.111-3.183 1.287-4.343.508-.111.65-.603.957-.923.391-.048.62-.234.563-.663.214-.278.392-.598.65-.827 1.522-1.35 1.526-1.341 2.875.188 2.854 3.236 5.713 6.47 8.569 9.704l.998 1.24 2.424 2.81h.001c.408.936 1.285 1.468 1.905 2.221.979 1.184 1.964 2.364 2.937 3.554.382.468.845.732 1.461.731 4.331-.001 8.661.002 12.992.008.375.001.782-.016.945-.381.211-.477-.142-.754-.523-.967zm-26.241-42.177l.063-.059-.001.004c-.022.017-.04.037-.062.055 0 .001 0 .001 0 0zm.062-.052v-.002a.014.014 0 0 1 .006-.002l-.006.004z"/>
        <path d="M478.781 348.13c-2.099-1.085-4.273-1.96-6.607-2.396-2.759-.814-5.521-1.623-8.388-1.983-2.083-.6-4.167-1.198-6.25-1.797-.47-.208-.934-.427-1.408-.621-4.524-1.856-5.754-5.505-3.22-9.566 1.404-1.322 3.034-2.15 4.91-2.683 2.811-.798 5.607-.456 8.421-.29l3.103.706 4.048 1.28c2.064 1.219 4.291 2.152 6.255 3.551.331.236.654.183.928-.185 1.153-1.549 2.326-3.084 3.492-4.624.859-.708 1.525-1.571 2.048-2.549.174-.307.227-.609-.031-.9-.725-.627-1.55-1.093-2.409-1.506v.001c-1.703-1.179-3.558-2.028-5.496-2.772-8.946-3.439-17.993-4.164-27.124-.934-2.763.979-5.313 2.508-7.221 4.871-5.893 5.346-5.927 17.231.871 21.857l.011.004c3.161 2.734 7.003 3.948 10.959 4.904l.476.06c2.416 1.09 5.055 1.271 7.593 1.863 2.402.854 4.947 1.231 7.315 2.211 3.935 1.627 5.813 3.272 5.22 7.726l-.183.864c-.556.461-.716 1.186-1.229 1.715-1.724 1.772-3.877 2.541-6.218 2.964-.087-.039-.157-.02-.212.059-2.389.347-4.78.183-7.172.058l-1.47-.105a55.54 55.54 0 0 1-9.339-3.156c-.038.03-.058.068-.083.105l-.004-.007.087-.099a8.067 8.067 0 0 0-2.193-1.23c-.725-.776-1.717-1.157-2.574-1.736-.028-.088-.089-.125-.18-.112-.824-1.003-1.505-1.298-2.549-.064-1.75 2.069-3.701 3.971-5.601 5.911-.416.426-.529.729-.022 1.118 3.474 2.672 7.128 5.012 11.406 6.204l.001-.001-.001.001.012.001c.586.693 1.516.561 2.237.929.358.297.787.291 1.217.279.584.365 1.229.515 1.91.539l.557.094c8.287 1.858 16.442 1.903 24.292-1.861 3.333-1.599 6.071-3.926 7.743-7.257 3.839-7.656 2.049-17.457-7.928-21.441zm-13.15-19.883l-.001.003-.002-.003h.003z"/>
        <path d="M216.622 370.55c.03-2.028-.091-2.201-2.149-2.2-10.205.004-20.41.011-30.614.018-2.207.002-2.207.003-2.331-2.155.013-.051.037-.101.037-.151.012-15.09.016-30.18.047-45.27.002-1.041-.422-1.345-1.398-1.328-2.541.044-5.085.092-7.622-.012-1.324-.055-1.659.396-1.657 1.662.031 17.893.018 35.784.018 53.677 0 .153.041.307.062.46-.017.62-.044 1.24-.05 1.86-.021 2.175-.019 2.177 2.213 2.177 13.831 0 27.662 0 41.493-.002 1.804 0 2.02-.24 1.996-2.057-.032-2.226-.078-4.454-.045-6.679z"/>
        <path d="M292.669 375.546c.029-.565.084-1.132.084-1.697.005-17.123.004-34.245.001-51.368 0-.567-.041-1.135-.063-1.701.26-1.15-.428-1.307-1.326-1.302-2.585.014-5.172.051-7.756-.013-1.068-.026-1.79.324-2.239 1.272l-2.479 2.791-7.083 7.78c-.727.839-1.757 1.42-2.153 2.54-.909.65-1.508 1.585-2.214 2.42l-1.224 1.309-3.116 3.391c-1.564.624-1.798-1.122-2.769-1.556l-.959-1.204c-.697-.744-1.271-1.613-2.178-2.146-.728-.932-1.451-1.869-2.456-2.532-.577-1.17-1.583-1.96-2.501-2.827-3.334-3.575-6.672-7.148-9.999-10.731-.349-.376-.75-.502-1.241-.495-2.066.031-4.132.051-6.198.074-.256-.033-.512-.07-.768-.102-2.409-.289-2.669-.06-2.669 2.351v47.888c0 12.438.022 24.876-.024 37.314-.005 1.383.293 1.953 1.799 1.875a72.926 72.926 0 0 1 7.304-.003c1.537.075 1.914-.479 1.911-1.947-.045-18.347-.032-36.692-.038-55.039-.001-2.072-.035-4.144-.053-6.216.288-1.987-.265-4.049.473-6.172.711.652 1.331 1.179 1.904 1.752 3.15 3.154 6.289 6.319 9.431 9.479l.569.57c.251.608.791.938 1.275 1.321a8.387 8.387 0 0 0 1.792 1.816l1.058 1.189c.425.494.849.989 1.275 1.481 1.004 1.161 3.022 1.365 4.384.504a.664.664 0 0 0 .219-.132l.017-.016c.771-.401 1.254-1.076 1.696-1.789l1.771-1.84 1.229-1.305 1.233-1.258.939-.922c.823-.949 1.986-1.591 2.523-2.797 1.194-.99 2.313-2.048 3.083-3.42l.574-.404c.73-.423 1.201-1.098 1.693-1.751.531-.242.814-.751 1.224-1.12.308-.276.7-.936 1.209-.17l-.006 1.871c-.015 11.844-.023 23.687-.058 35.53-.003.997.454 1.218 1.333 1.201 2.068-.037 4.138-.018 6.206-.007 3.648.024 3.648.029 3.361-3.737zm-25.21-37.965h.014v.001-.001l.001.001h-.001l.002.015a.12.12 0 0 0-.016-.016zm5.69 10.081l.014.011a.264.264 0 0 1 .02.071.55.55 0 0 0-.034-.082z"/>
        <path d="M358.27 339.07c-.01-3.176-.616-6.258-2.29-9.039l-.006.004.005-.007c-.688-1.576-1.709-2.93-2.88-4.168-3.313-3.49-7.465-5.416-12.121-6.31-3.149-.599-6.327-.704-9.5-.079h-.005l-1.119.104.007.005-.005-.003c-1.67.028-3.18.622-4.672 1.277l-.002.006-.001-.007c-.954.126-1.773.541-2.495 1.164h.005l-.005.002c-3.751 1.771-6.404 4.606-8.107 8.357v.004c-.293.386-.689.723-.595 1.287h.003l-.002.002c-.755 1.771-1.216 3.618-1.249 5.539a859.405 859.405 0 0 0-.089 12.437c-.006 9.273.028 18.552-.017 27.825-.006 1.427.433 1.903 1.876 1.843 2.586-.105 5.178-.012 7.77-.045.488-.005 1.21.345 1.376-.555l.001-.01c.412-1.093.2-2.243.218-3.354.067-4.108.277-8.224-.206-12.323l-.002-.035c.006-.854.804-.777 1.276-1.076l.001-.001c.394-.005.787-.011 1.176-.021l.003-.002-.001.003c.243.076.486.219.729.22 5.115.013 10.229.011 15.345.01.462 0 .938.066 1.351-.23l3.079.351.047 13.299-.002.002c-.022.877-.045 1.754-.072 2.625-.028.854.35 1.16 1.221 1.144 3.041-.062 6.076-.056 9.117-.078l-.001.003c.9-.075.838-.737.838-1.368.004-12.934.038-25.868 0-38.802zm-11.171 11.508c-7.27.339-14.545.056-21.82.161-.711.012-.866-.327-.844-.949.145-4.483-.294-8.974.283-13.446.555-.927 1.104-1.854 1.659-2.774l.949-.933c3.102-2.458 6.754-2.697 10.488-2.559.194.017.389.033.583.056 1.771.693 3.612 1.221 5.122 2.464 2.553 2.104 3.457 4.934 3.641 8.097-.022 3.29-.039 6.587-.061 9.883z"/>
        <path d="M154.412 339.368c-.194-1.299-.649-2.508-1.26-3.662a24.007 24.007 0 0 0-2.403-4.773c-.965-1.487-2.076-2.891-3.291-4.251-2.825-3.151-6.188-5.267-10.15-6.554h-.006c-1.493-.732-3.096-1.032-4.733-1.177-.305-.021-.61-.05-.916-.072a14.484 14.484 0 0 0-3.291-.377c-1.127 0-2.248.128-3.375.344-1.665-.094-3.257.277-4.839.732h-.006c-2.092.539-4.129 1.188-5.927 2.437h-.006c-.993.405-1.964.827-2.542 1.815-.81.311-1.476.782-2.064 1.348-.583.561-1.088 1.216-1.593 1.876-.649.311-1.11.777-1.293 1.493-.683.61-1.271 1.287-1.587 2.17-.228.072-.294.244-.294.443v.072c-.405.389-.749.811-.894 1.365h-.005c-.488.788-1.032 1.549-1.238 2.48-.488.649-.827 1.36-.882 2.187v.006c-1.148 2.681-1.631 5.511-1.865 8.396v.006c-.133 1.659-.233 3.308-.044 4.973v.005c.067 8.158 2.703 15.306 8.347 21.283.661 1.004 1.576 1.726 2.575 2.358.466.61 1.01 1.11 1.787 1.282a21.42 21.42 0 0 0 6.382 3.207c2.248.699 4.606 1.044 7.059 1.1 1.659.149 3.318.116 4.978-.045a17.38 17.38 0 0 0 5.661-1.148c.555-.028 1.071-.178 1.515-.533.389-.139.783-.261 1.166-.416 4.19-1.754 7.453-4.634 10.123-8.258 3.174-4.312 5.255-9.052 5.833-14.412v-.006c.544-1.01.322-2.125.417-3.186.397-4.25.02-8.439-1.339-12.508zm-9.43 14.279c-.355.832-.477 1.709-.588 2.598a39.237 39.237 0 0 1-2.825 6.221c-.655.815-1.31 1.637-1.959 2.453-.266.244-.527.488-.788.727-.522.306-1.021.639-1.382 1.144-.267.217-.539.433-.811.654-1.681.616-3.363 1.238-5.039 1.859-3.208.261-6.387.399-9.495-.743-5.516-2.031-8.613-6.222-10.3-11.599-1.57-5.018-1.559-10.111.017-15.112 2.614-8.291 8.891-13.219 17.765-12.48 3.229.267 5.949 1.531 8.552 3.258.938.96 1.87 1.92 2.808 2.886.66 1.099 1.321 2.203 1.981 3.308.389.954.771 1.903 1.16 2.853a.26.26 0 0 0 .05.266c.206.722.411 1.449.61 2.176.011.205.022.416.028.622-.017.332-.211.71.206.948a4.613 4.613 0 0 1 .066.533c0 .011.006.022.006.033.005.089.005.172.011.261v.033c.006.072.006.145.011.217.011.443.028.888.172 1.32.017.062.039.122.067.184.005.799.005 1.593.011 2.386-.267.98-.316 1.985-.334 2.994z"/>
        <path d="M110.452 375.572c.066-.071.126-.127.181-.17-.031.139-.062.249-.181.17z"/>
    </g>
    <path fill="#00923F" d="M308.128 209.895a6.071 6.071 0 0 1-4.404-10.249c11.21-11.814 25.865-18.32 41.268-18.32 16.019 0 31.922 6.827 41.504 17.816a6.07 6.07 0 1 1-9.149 7.98c-7.346-8.423-19.742-13.655-32.354-13.655-16.243 0-27.309 9.107-32.459 14.535a6.06 6.06 0 0 1-4.406 1.893z"/>
    <path fill="#00923F" d="M393.059 241.864h-40.724a6.07 6.07 0 1 1 0-12.142h40.724c3.354 0 6.07 2.718 6.07 6.071s-2.717 6.071-6.07 6.071z"/>
    <linearGradient id="a" gradientUnits="userSpaceOnUse" x1="371.813" y1="235.793" x2="307.885" y2="235.793">
        <stop offset="0" stop-color="#fff"/>
        <stop offset="1"/>
    </linearGradient>
    <path opacity=".8" fill="url(#a)" d="M393.059 241.864h-40.724a6.07 6.07 0 1 1 0-12.142h40.724c3.354 0 6.07 2.718 6.07 6.071s-2.717 6.071-6.07 6.071z"/>
    <path fill="#00923F" d="M394.009 246.63a6.07 6.07 0 0 0-7.657 3.882c-5.863 17.924-22.485 29.967-41.359 29.967-23.989 0-43.506-19.517-43.506-43.506 0-30.684-24.964-55.647-55.647-55.647-30.685 0-55.647 24.963-55.647 55.647 0 30.685 24.963 55.647 55.647 55.647 12.655 0 24.582-4.141 34.489-11.974l5.484-4.716a6.07 6.07 0 0 0-7.922-9.201l-5.189 4.468c-7.722 6.072-17.008 9.281-26.862 9.281-23.99 0-43.506-19.517-43.506-43.506s19.517-43.506 43.506-43.506 43.506 19.517 43.506 43.506c0 30.685 24.964 55.647 55.647 55.647 24.14 0 45.398-15.405 52.899-38.333a6.07 6.07 0 0 0-3.883-7.656z"/>
</svg>
